<?xml version="1.0" encoding="utf-8"?>
<!-- Generator: Adobe Illustrator 27.7.0, SVG Export Plug-In . SVG Version: 6.00 Build 0)  -->
<svg version="1.1" id="Layer_1" xmlns="http://www.w3.org/2000/svg" xmlns:xlink="http://www.w3.org/1999/xlink" x="0px" y="0px"
	 viewBox="0 0 1280 1024" style="enable-background:new 0 0 1280 1024;" xml:space="preserve">
<style type="text/css">
	.st0{enable-background:new    ;}
	.st1{fill:#47352D;}
</style>
<g>
	<g class="st0">
		<path class="st1" d="M528.78,510.84c-2.46,4.38-9.74,7.48-17.8,9.39l-4.43-26.21c-0.84,0.25-1.82,0.39-2.56,0.54
			c-0.74-1.72-0.98-3.1-1.13-3.93c-0.1-0.44-0.29-1.48-0.25-3.29c2.11-0.44,5.8-1.23,6.59-1.33c5.7-0.98,11.02-0.69,14.36,1.23
			c2.71,1.62,5.85,5.85,6.59,10.77C530.89,503.07,530.35,507.84,528.78,510.84z M519.04,494.02c-1.23-0.69-3-0.98-4.67-1.03
			c1.08,6.15,1.87,10.62,3.15,17.16c1.03-0.49,3.54-0.93,4.08-2.95c0.69-1.87,0.98-4.43,0.2-8.71
			C521.4,496.09,519.78,494.52,519.04,494.02z"/>
		<path class="st1" d="M554,513.55c-2.16,2.8-4.97,4.33-8.66,4.33c-3.79,0-6.93-1.52-9.29-4.52c-2.31-2.85-2.9-5.75-2.9-9.05
			c0-5.71,4.03-11.46,11.21-11.46c5.16,0,11.61,3.98,11.8,12.05C556.12,507.89,555.92,510.94,554,513.55z M543.77,499.97
			c-1.92,0-2.75,2.26-2.75,3.39c0,2.8,1.97,6.84,4.38,6.84c2.31,0,3.29-2.12,3.29-3.44c0-0.69-0.15-1.53-0.34-2.46
			C547.81,502.29,545.69,499.97,543.77,499.97z"/>
		<path class="st1" d="M580.41,515.61c0,0.49,0,0.93,0.34,4.23l-9.64-1.77c0.29-1.87,0.29-2.85,0.44-3.88
			c0.2-1.33,0.44-4.43,0.93-6.98c0.34-1.97,0.64-3.79,0.64-5.95c0-1.28-0.25-2.36-0.74-2.7c-0.89,0.05-4.23,3.05-5.66,4.87
			c0.1,3.1,0.05,4.43,0,5.85c-0.05,1.18-0.25,8.41-0.05,9.2l-8.56,0.74c0,0,0.54-10.82,0.59-14.02c0.05-2.9-0.79-13.03-0.79-13.03
			c1.62-0.39,4.82-1.03,8.07-0.69c0,0,0.2,3.93,0.2,4.52c1.18-1.82,3.93-4.33,6.39-4.87c1.03-0.25,2.95,0,3.84,0.34
			c4.23,1.82,5.11,5.56,5.11,9.25c0,1.67-0.39,3.84-0.59,5.71C580.66,508.19,580.41,512.52,580.41,515.61z"/>
		<path class="st1" d="M619.8,487.38l-4.13,0.69c-3.93,0.79-7.13,1.38-9.84,1.87c0.34,2.31,0.64,4.38,1.18,7.62
			c2.36-0.2,3.98-0.64,5.61-0.93c0.59-0.1,3.15-0.84,3.64-0.93c0.89,1.52,1.08,2.66,1.23,3.2c0.1,0.69,0.1,1.97-0.05,3.93
			l-4.13,0.84c-1.33,0.25-3.15,0.59-5.16,0.84h-0.05c0.69,4.52,1.52,9.88,2.26,14.11c-2.71,1.18-3.2,1.28-3.69,1.38
			c-0.89,0.2-2.16,0.25-4.62,0.05l-2.07-13.82l-2.51,0.49l-1.52-6.59l3-0.54l-2.07-14.51c2.85-0.88,5.8-1.77,8.21-2.26
			c0.59-0.15,4.38-0.84,11.06-1.97l2.31-0.54C619.35,483.01,619.6,484.43,619.8,487.38z"/>
		<path class="st1" d="M643.06,503.66c0,0-5.11,0.93-7.52,0.93l0.15-3.64c0-0.84-0.25-1.82-0.89-1.67
			c-1.23,0.29-1.82,0.64-3.79,2.85l-1.18,1.77c-0.05,1.92-0.2,4.08-0.1,6.29c0.05,2.31,0,2.66,0.39,8.41l-9.05-0.15l0.05-3.93
			c0.29-5.7,0.49-8.66,0.34-15.39c-0.05-2.66-0.15-3.93-0.39-6.74c1.92-0.84,8.21-1.57,8.21-1.57c0.1,2.12,0.29,4.62,0.29,4.62
			c1.08-0.98,3.69-3.84,5.21-4.03c2.56-0.34,4.23,0.34,5.75,2.02c1.43,1.43,2.46,4.92,2.41,7.03L643.06,503.66z"/>
		<path class="st1" d="M662.18,512.17c0.54,0,2.66-0.29,5.56-0.69c-0.39,3.39-1.47,6.49-3.25,9.39l-3.49-0.64
			c-2.36-0.39-4.77-1.03-6.64-2.02h0.05c-3.25-1.57-5.41-3.44-6.64-5.7c-1.67-3.05-2.36-6.25-2.36-9.49c0-1.92,0.39-4.13,1.08-5.9
			c2.26-5.46,6.05-8.41,10.97-8.07h-0.05c7.52,0.44,11.21,5.85,11.02,16.18l-13.92,2.51C655.74,510.84,658.25,512.17,662.18,512.17z
			 M659.23,500.61c-0.1-1.43-0.05-2.31-0.44-3.39c-0.44-1.08-1.03-1.43-1.87-1.43c-0.69-0.05-1.97,0.89-2.56,2.51
			c-0.39,1.18-0.59,2.31-0.59,3.25C655.54,501.2,657.37,500.96,659.23,500.61z"/>
		<path class="st1" d="M687.51,512.17c0.54,0,2.66-0.29,5.56-0.69c-0.39,3.39-1.47,6.49-3.25,9.39l-3.49-0.64
			c-2.36-0.39-4.77-1.03-6.64-2.02h0.05c-3.25-1.57-5.41-3.44-6.64-5.7c-1.67-3.05-2.36-6.25-2.36-9.49c0-1.92,0.39-4.13,1.08-5.9
			c2.26-5.46,6.05-8.41,10.97-8.07h-0.05c7.52,0.44,11.21,5.85,11.02,16.18l-13.92,2.51C681.07,510.84,683.57,512.17,687.51,512.17z
			 M684.56,500.61c-0.1-1.43-0.05-2.31-0.44-3.39c-0.44-1.08-1.03-1.43-1.87-1.43c-0.69-0.05-1.97,0.89-2.56,2.51
			c-0.39,1.18-0.59,2.31-0.59,3.25C680.87,501.2,682.69,500.96,684.56,500.61z"/>
		<path class="st1" d="M733.83,519.89l-8.56,0.74c-0.29-2.06-0.44-5.8-0.44-8.21c0-3.54-0.25-9.49-0.39-10.97
			c-0.2-1.38-0.79-1.92-0.74-2.02c-2.26-0.44-3.79,4.87-3.89,7.67c-0.2,3.93-0.29,7.57-0.2,11.11l-8.85-0.34l0.44-3.2
			c0.49-3.29,0.74-7.23,0.74-10.57c0-1.57-0.44-4.08-1.18-4.38c-0.74-0.29-3.84,0.59-5.07,3.44c-0.2,6.74,0.1,4.28,0.1,9.15
			c0,1.38,0.15,4.28,0.15,4.28l-9.1-0.44c0.1-0.15,0.59-5.75,0.88-8.31c0.39-3.29,0-10.13-1.87-13.03c0,0,5.9-2.95,7.82-3.49
			c0,0,1.18,1.97,1.52,3.98c1.18-1.43,3.25-3.25,5.46-3.64c1.18-0.2,2.8-0.1,4.28,0.79c1.82,1.13,2.75,2.11,3.44,3.44
			c0.84-1.92,3.74-3.84,5.66-3.93c3.1-0.15,5.16,0.59,6.98,2.9c1.92,2.61,1.77,6.54,1.87,10.23c0,3.29,0.15,7.82,0.29,10.18
			C733.24,516.4,733.59,518.17,733.83,519.89z"/>
		<path class="st1" d="M757.97,519.7c-2.36,1.47-4.38,1.92-6.15,1.77c-0.88-0.98-1.33-4.28-1.33-4.28
			c-1.08,0.39-3.34,1.52-4.57,1.52c-5.07,0-9.39-2.46-9.39-7.87c0-0.93,0.1-1.82,0.34-2.7c0.59-2.16,1.87-4.33,3.69-5.85
			c1.67-1.38,3.79-2.02,6.25-2.02c0.93,0,2.16,0.2,3,0.39v-1.28l-0.1-2.12c-0.34-2.11-0.74-1.97-1.72-1.72
			c-0.44,0.1-3.15,0.88-3.64,1.13c-0.98,0.59-2.26,1.18-3.49,2.36c-0.93-0.64-1.38-2.16-1.82-3.79c-0.29-1.03-0.29-3.05-0.05-3.79
			c2.8-1.97,5.8-2.95,9.1-2.95c1.57,0,2.95,0.25,4.08,0.69c2.75,0.84,4.72,2.61,5.46,5.12c0.49,1.47,0.69,3.49,0.69,5.95
			c0,1.18-0.1,2.71-0.1,4.08c-0.05,2.16-0.05,3.15-0.05,4.28c0,4.97,0.49,7.82,1.82,8.85C759.99,517.48,758.96,519.11,757.97,519.7z
			 M746.96,505.63c-1.03,0-1.82,2.9-1.82,4.28c0,2.11,0.59,3.05,1.47,3.05c1.18,0,2.9-0.59,3.34-2.06l-0.05-3.79l-0.39-0.39
			C748.73,505.92,747.65,505.63,746.96,505.63z"/>
		<path class="st1" d="M784.77,515.61c0,0.49,0,0.93,0.34,4.23l-9.64-1.77c0.29-1.87,0.29-2.85,0.44-3.88
			c0.2-1.33,0.44-4.43,0.93-6.98c0.34-1.97,0.64-3.79,0.64-5.95c0-1.28-0.25-2.36-0.74-2.7c-0.88,0.05-4.23,3.05-5.66,4.87
			c0.1,3.1,0.05,4.43,0,5.85c-0.05,1.18-0.25,8.41-0.05,9.2l-8.56,0.74c0,0,0.54-10.82,0.59-14.02c0.05-2.9-0.79-13.03-0.79-13.03
			c1.62-0.39,4.82-1.03,8.07-0.69c0,0,0.2,3.93,0.2,4.52c1.18-1.82,3.93-4.33,6.39-4.87c1.03-0.25,2.95,0,3.84,0.34
			c4.23,1.82,5.11,5.56,5.11,9.25c0,1.67-0.39,3.84-0.59,5.71C785.02,508.19,784.77,512.52,784.77,515.61z"/>
	</g>
</g>
</svg>
