<?xml version="1.0" encoding="utf-8"?>
<!-- Generator: Adobe Illustrator 27.7.0, SVG Export Plug-In . SVG Version: 6.00 Build 0)  -->
<svg version="1.1" id="Layer_1" xmlns="http://www.w3.org/2000/svg" xmlns:xlink="http://www.w3.org/1999/xlink" x="0px" y="0px"
	 viewBox="0 0 1280 1024" style="enable-background:new 0 0 1280 1024;" xml:space="preserve">
<style type="text/css">
	.st0{fill:#47352D;}
</style>
<g>
	<g>
		<path class="st0" d="M474.49,498.65c-3.1,2.75-8.16,4.33-15.39,4.57c-0.25-3.39-0.88-10.72-1.67-18.15c0-0.1-0.05-0.25-0.05-0.39
			c-0.25-2.51-0.69-7.28-3.39-14.85l5.36-2.36c2.12-0.93,4.38-1.52,6.44-1.52c2.61,0,4.67,0.79,6.05,2.07
			c1.53,1.52,2.31,3.29,2.31,5.26c0,2.12-0.74,4.33-2.31,6.74c1.77,0.64,3.39,1.67,4.52,2.95c1.82,2.02,2.8,4.28,2.8,6.69
			C479.16,492.95,477.59,495.9,474.49,498.65z M464.71,472.39c-0.39-0.05-1.92,0.2-2.8,0.64c0.44,1.72,0.88,4.43,1.67,8.07
			c1.33-0.98,2.71-2.56,2.71-2.56c0.84-1.03,0.98-2.46,0.79-3.74C466.82,473.52,465.98,472.64,464.71,472.39z M468.15,486.51
			c-0.29-0.15-1.87-0.15-3.1,0.34c0.2,1.97,0.64,5.71,1.03,8.16c0.39-0.29,2.21-1.38,2.56-1.67c0.98-1.03,1.52-2.31,1.52-3.74
			C470.21,488.23,469.52,486.95,468.15,486.51z"/>
		<path class="st0" d="M497.51,495.16c0.54,0,2.66-0.29,5.56-0.69c-0.39,3.39-1.48,6.49-3.25,9.39l-3.49-0.64
			c-2.36-0.39-4.77-1.03-6.64-2.02h0.05c-3.25-1.57-5.41-3.44-6.64-5.7c-1.67-3.05-2.36-6.25-2.36-9.49c0-1.92,0.39-4.13,1.08-5.9
			c2.26-5.46,6.05-8.41,10.97-8.07h-0.05c7.52,0.44,11.21,5.85,11.02,16.18l-13.92,2.51C491.06,493.83,493.57,495.16,497.51,495.16z
			 M494.56,483.61c-0.1-1.43-0.05-2.31-0.44-3.39c-0.44-1.08-1.03-1.43-1.87-1.43c-0.69-0.05-1.97,0.89-2.56,2.51
			c-0.39,1.18-0.59,2.31-0.59,3.25C490.87,484.2,492.69,483.95,494.56,483.61z"/>
		<path class="st0" d="M526.72,502.69c-2.36,1.48-4.38,1.92-6.15,1.77c-0.89-0.98-1.33-4.28-1.33-4.28
			c-1.08,0.39-3.34,1.52-4.57,1.52c-5.07,0-9.39-2.46-9.39-7.87c0-0.93,0.1-1.82,0.34-2.7c0.59-2.16,1.87-4.33,3.69-5.85
			c1.67-1.38,3.79-2.02,6.25-2.02c0.93,0,2.16,0.2,3,0.39v-1.28l-0.1-2.12c-0.34-2.11-0.74-1.97-1.72-1.72
			c-0.44,0.1-3.15,0.88-3.64,1.13c-0.98,0.59-2.26,1.18-3.49,2.36c-0.93-0.64-1.38-2.16-1.82-3.79c-0.29-1.03-0.29-3.05-0.05-3.79
			c2.8-1.97,5.8-2.95,9.1-2.95c1.57,0,2.95,0.25,4.08,0.69c2.75,0.84,4.72,2.61,5.46,5.12c0.49,1.47,0.69,3.49,0.69,5.95
			c0,1.18-0.1,2.71-0.1,4.08c-0.05,2.16-0.05,3.15-0.05,4.28c0,4.97,0.49,7.82,1.82,8.85C528.73,500.47,527.7,502.1,526.72,502.69z
			 M515.7,488.62c-1.03,0-1.82,2.9-1.82,4.28c0,2.11,0.59,3.05,1.48,3.05c1.18,0,2.9-0.59,3.34-2.07l-0.05-3.79l-0.39-0.39
			C517.47,488.92,516.39,488.62,515.7,488.62z"/>
		<path class="st0" d="M543.73,484.79c0,1.77-0.1,4.97-0.1,9.2c0,1.62,0.34,3.3,1.48,3.3c0.84-0.1,3.34-3.79,3.54-4.28
			c2.71,0.39,4.77,1.28,6.39,3.29c-2.16,6.39-8.31,9.39-12.74,9.39c-0.54,0-1.23-0.05-1.82-0.2h0.05c-3.74-0.79-5.66-3.84-5.61-9.2
			c0-0.93,0-3.1,0.05-6.44v-4.28c-1.57,0.15-3.2,0.25-3.88,0.29v-7.52c1.28,0,3.2,0.15,3.74,0.1c0-1.57,0-3,0.1-3.93
			c0.1-3.05,0.49-7.47,0.79-11.95c3.29-0.34,6.15-0.05,8.51,0.88l-0.1,3l-0.15,1.97c-0.05,1.82-0.25,3.29-0.39,6.49
			c-0.1,1.13-0.1,0.59-0.1,2.71c1.53-0.15,3.44-0.25,4.97-0.34l3.98-0.25c0.74,1.53,0.69,3.05,0.69,4.13c0,0.64-0.15,2.8-0.29,3.54
			l-4.87,0.05C546.97,484.74,544.91,484.74,543.73,484.79z"/>
		<path class="st0" d="M578.84,486.65c0,0-5.12,0.93-7.52,0.93l0.15-3.64c0-0.84-0.25-1.82-0.89-1.67
			c-1.23,0.29-1.82,0.64-3.79,2.85l-1.18,1.77c-0.05,1.92-0.2,4.08-0.1,6.29c0.05,2.31,0,2.66,0.39,8.41l-9.05-0.15l0.05-3.93
			c0.3-5.7,0.49-8.66,0.34-15.39c-0.05-2.66-0.15-3.93-0.39-6.74c1.92-0.84,8.21-1.57,8.21-1.57c0.1,2.12,0.29,4.62,0.29,4.62
			c1.08-0.98,3.69-3.84,5.21-4.03c2.56-0.34,4.23,0.34,5.75,2.02c1.43,1.43,2.46,4.92,2.41,7.03L578.84,486.65z"/>
		<path class="st0" d="M586.51,473.92c-2.31,0-4.92-1.87-4.92-4.33s2.51-4.28,4.92-4.28c2.61,0,4.72,1.82,4.92,4.28
			C591.28,472.15,589.06,473.92,586.51,473.92z M588.72,502.93c-0.59,0-1.28,0-4.08-0.49c-0.25-5.07-0.98-14.85-1.97-23.9
			c2.66-0.84,5.46-1.18,8.31-0.79l0.34,3.1l-0.05-0.1c0.15,0.88,0.39,4.52,0.79,8.95c0.2,2.16,0.64,6.84,0.88,12.54
			C592.95,502.24,590.15,502.83,588.72,502.93z"/>
		<path class="st0" d="M616.26,483.16c-1.33,1.77-2.02,2.51-3.84,5.02l1.72,1.97v-0.05c0.98,1.03,4.77,6.2,5.95,7.52l1.97,2.36
			c-0.98,2.26-3,3.89-6.54,4.82l-1.97-2.46c-0.64-0.69-5.16-5.9-6.39-7.33c-1.72,1.77-3.88,5.02-5.26,7.38
			c-2.41-1.03-4.67-2.36-6.74-4.33c1.23-2.11,4.57-6.39,6.93-9.29c-1.67-1.82-4.62-5.8-7.13-8.56c1.13-1.52,1.92-2.46,2.41-2.9
			c0.29-0.3,1.57-0.98,3.93-2.07l2.61,3.59h0.05c0.93,1.18,0.44,0.64,2.9,3.29c2.02-2.66,4.82-6.39,7.33-9.79
			c2.66,1.62,4.87,3.1,6.49,4.87l-1.82,2.56C618.23,480.65,617.29,481.84,616.26,483.16z"/>
		<path class="st0" d="M658.11,484.15c-1.87,2.8-4.23,4.23-7.23,5.66c-1.52,0.69-3.44,1.08-5.75,1.13
			c0.34,4.87,0.84,9.49,1.08,14.11c-3.74,0.89-6.64,1.08-8.85,0.39c0.2-3.25,0.1-4.77,0.1-6.64c0-1.08-0.29-9.1-0.84-25.47
			l-1.82,0.49l-0.49-6.98c2.75-0.74,9.64-2.46,13.48-2.46c6.29,0,10.43,1.87,12.34,5.61c0.79,1.43,1.13,2.95,1.13,4.52
			C661.25,477.31,659.97,481.2,658.11,484.15z M651.42,472.25c-1.28-0.69-2.8-0.64-4.57-0.69c-0.54,0-1.38,0.1-2.51,0.29
			c0.15,4.43,0.34,8.11,0.54,12.44c1.97,0,3.59-0.54,4.82-1.67c1.28-1.03,3.05-4.38,3.1-7.18
			C652.79,473.92,652.35,472.84,651.42,472.25z"/>
		<path class="st0" d="M683.23,496.54c-2.16,2.8-4.97,4.33-8.66,4.33c-3.79,0-6.93-1.52-9.29-4.52c-2.31-2.85-2.9-5.75-2.9-9.05
			c0-5.71,4.03-11.46,11.21-11.46c5.16,0,11.61,3.98,11.8,12.05C685.35,490.88,685.15,493.93,683.23,496.54z M673,482.97
			c-1.92,0-2.75,2.26-2.75,3.39c0,2.8,1.97,6.84,4.38,6.84c2.31,0,3.29-2.12,3.29-3.44c0-0.69-0.15-1.53-0.34-2.46
			C677.04,485.28,674.92,482.97,673,482.97z"/>
		<path class="st0" d="M700.89,484.79c0,1.77-0.1,4.97-0.1,9.2c0,1.62,0.34,3.3,1.47,3.3c0.84-0.1,3.34-3.79,3.54-4.28
			c2.71,0.39,4.77,1.28,6.39,3.29c-2.16,6.39-8.31,9.39-12.74,9.39c-0.54,0-1.23-0.05-1.82-0.2h0.05c-3.74-0.79-5.66-3.84-5.61-9.2
			c0-0.93,0-3.1,0.05-6.44v-4.28c-1.57,0.15-3.2,0.25-3.88,0.29v-7.52c1.28,0,3.2,0.15,3.74,0.1c0-1.57,0-3,0.1-3.93
			c0.1-3.05,0.49-7.47,0.79-11.95c3.29-0.34,6.15-0.05,8.51,0.88l-0.1,3l-0.15,1.97c-0.05,1.82-0.25,3.29-0.39,6.49
			c-0.1,1.13-0.1,0.59-0.1,2.71c1.53-0.15,3.44-0.25,4.97-0.34l3.98-0.25c0.74,1.53,0.69,3.05,0.69,4.13c0,0.64-0.15,2.8-0.29,3.54
			l-4.87,0.05C704.13,484.74,702.07,484.74,700.89,484.79z"/>
		<path class="st0" d="M729.95,483.56c-0.93,0-1.97,0-3.15,0.05c0,1.52,0.05,1.72,0.05,5.66c0.1,2.36,0.93,3.39,2.02,3.34
			c1.33-0.05,3.44-2.02,4.23-3c1.33,0.79,3.84,3.15,4.47,4.48c-2.07,4.87-7.72,7.52-12,7.52c-0.54,0-1.23-0.05-1.72-0.2
			c-3.64-0.79-5.46-3.74-5.41-8.95c0-0.88,0-2.8,0.05-6.05v-2.21c-1.57,0.15-4.52,0.34-5.16,0.39c-0.39-2.12-0.29-5.75-0.05-7.48
			c1.28,0.15,4.52-0.05,5.07-0.1c0.05-4.03,0.05-9,0.84-13.23c3.2-0.29,5.85,0,8.16,0.88c-0.39,3.89-0.74,7.48-0.64,11.51
			c1.67,0.15,3.59,0.05,5.07-0.05l3.2-0.44c0.64,1.48,0.84,3,0.84,4.08c0,0.59-0.1,2.85-0.25,3.54l-1.97,0.15
			C732.65,483.56,731.42,483.56,729.95,483.56z"/>
		<path class="st0" d="M755.52,495.16c0.54,0,2.66-0.29,5.56-0.69c-0.39,3.39-1.48,6.49-3.25,9.39l-3.49-0.64
			c-2.36-0.39-4.77-1.03-6.64-2.02h0.05c-3.25-1.57-5.41-3.44-6.64-5.7c-1.67-3.05-2.36-6.25-2.36-9.49c0-1.92,0.39-4.13,1.08-5.9
			c2.26-5.46,6.05-8.41,10.97-8.07h-0.05c7.52,0.44,11.21,5.85,11.02,16.18l-13.92,2.51C749.08,493.83,751.58,495.16,755.52,495.16z
			 M752.57,483.61c-0.1-1.43-0.05-2.31-0.44-3.39c-0.44-1.08-1.03-1.43-1.87-1.43c-0.69-0.05-1.97,0.89-2.56,2.51
			c-0.39,1.18-0.59,2.31-0.59,3.25C748.88,484.2,750.7,483.95,752.57,483.61z"/>
		<path class="st0" d="M786.4,486.65c0,0-5.12,0.93-7.52,0.93l0.15-3.64c0-0.84-0.25-1.82-0.89-1.67c-1.23,0.29-1.82,0.64-3.79,2.85
			l-1.18,1.77c-0.05,1.92-0.2,4.08-0.1,6.29c0.05,2.31,0,2.66,0.39,8.41l-9.05-0.15l0.05-3.93c0.3-5.7,0.49-8.66,0.34-15.39
			c-0.05-2.66-0.15-3.93-0.39-6.74c1.92-0.84,8.21-1.57,8.21-1.57c0.1,2.12,0.29,4.62,0.29,4.62c1.08-0.98,3.69-3.84,5.21-4.03
			c2.56-0.34,4.23,0.34,5.75,2.02c1.43,1.43,2.46,4.92,2.41,7.03L786.4,486.65z"/>
	</g>
</g>
</svg>
