<?xml version="1.0" encoding="utf-8"?>
<!-- Generator: Adobe Illustrator 27.7.0, SVG Export Plug-In . SVG Version: 6.00 Build 0)  -->
<svg version="1.1" id="Layer_1" xmlns="http://www.w3.org/2000/svg" xmlns:xlink="http://www.w3.org/1999/xlink" x="0px" y="0px"
	 viewBox="0 0 1280 1024" style="enable-background:new 0 0 1280 1024;" xml:space="preserve">
<style type="text/css">
	.st0{fill:#47352D;}
</style>
<g>
	<g>
		<path class="st0" d="M534.67,529.75l-0.34-15.44c-1.03,0.05-3,0.39-3,0.39l-0.05-7.13c0.49,0,2.46-0.29,2.9-0.34
			c-0.05-4.38-0.2-9.74-0.25-13.72c0.93,0.05,4.57-0.1,5.56-0.1c0.84,0,6.98-0.34,14.07-0.79c0.74,1.92,0.59,3.05,0.59,3.84
			c0,0.59,0,1.03-0.39,3.15c-3.98,0.34-4.57,0.34-5.07,0.39c-2.16,0.15-2.66,0.25-6.25,0.39c0,1.97,0,3.98,0.05,5.9
			c2.9-0.39,7.67-0.98,10.28-1.52c0.49,1.72,0.84,4.43,0.49,6.98c-6.49,1.18-7.23,1.38-10.62,1.77l0.15,5.51
			c3.05-0.84,7.28-1.77,11.36-2.41c0.64,2.31,0.59,5.85,0.44,7.38C550.51,524.83,540.67,527.09,534.67,529.75z"/>
		<path class="st0" d="M579.96,513.67c0,0-5.11,0.93-7.52,0.93l0.15-3.64c0-0.84-0.25-1.82-0.89-1.67
			c-1.23,0.29-1.82,0.64-3.79,2.85l-1.18,1.77c-0.05,1.92-0.2,4.08-0.1,6.29c0.05,2.31,0,2.66,0.39,8.41l-9.05-0.15l0.05-3.93
			c0.29-5.7,0.49-8.66,0.34-15.39c-0.05-2.66-0.15-3.93-0.39-6.74c1.92-0.84,8.21-1.57,8.21-1.57c0.1,2.12,0.29,4.62,0.29,4.62
			c1.08-0.98,3.69-3.84,5.21-4.03c2.56-0.34,4.23,0.34,5.75,2.02c1.43,1.43,2.46,4.92,2.41,7.03L579.96,513.67z"/>
		<path class="st0" d="M587.63,500.93c-2.31,0-4.92-1.87-4.92-4.33s2.51-4.28,4.92-4.28c2.61,0,4.72,1.82,4.92,4.28
			C592.4,499.16,590.19,500.93,587.63,500.93z M589.84,529.95c-0.59,0-1.28,0-4.08-0.49c-0.25-5.07-0.98-14.85-1.97-23.9
			c2.66-0.84,5.46-1.18,8.31-0.79l0.34,3.1l-0.05-0.1c0.15,0.88,0.39,4.52,0.79,8.95c0.2,2.16,0.64,6.84,0.89,12.54
			C594.07,529.26,591.27,529.85,589.84,529.95z"/>
		<path class="st0" d="M613.84,525.91c-1.13,0.54-4.92,2.12-7.52,2.12c-2.46,0-4.28-0.93-5.51-1.72l0.1,0.05
			c-3.1-1.97-4.67-5.26-4.67-9.93c0-0.74,0.05-1.62,0.1-2.56c0.34-2.9,1.52-5.46,3.84-7.62c2.11-1.97,4.72-3,7.77-3
			c2.8,0,5.41,0.79,7.52,2.61c0.29,0.25,1.82,1.87,2.02,2.07l-4.62,5.26c-2.46-2.7-3.98-2.95-3.98-3.05
			c-2.21,0.49-3.44,2.41-3.69,5.11c-0.05,0.89-0.15,1.62-0.1,2.21c0.05,1.08,0.29,2.61,1.67,2.95c1.18,0.29,2.75,0.05,3.54-0.34
			c1.08-0.54,1.28-0.74,3.69-2.66l3.49,5.36C616.25,524.09,615.07,525.32,613.84,525.91z"/>
		<path class="st0" d="M657.31,526.11v-0.05c-1.33,3-4.33,5.51-10.67,5.51c-3.69,0-7.13-1.48-9.1-3.84
			c-4.23-5.02-4.82-12.39-4.82-17.46c0-7.52,4.23-18.1,14.41-18.1c6.79,0,11.41,4.97,11.9,11.02l0.25,3.64
			c-3.39,1.33-6,1.23-9.05,1.08c0.29-2.16,0.39-3.49,0.34-4.13c0-0.34-0.05-0.69-0.05-0.93c0-2.12-1.47-3.44-3.39-3.44
			c-3.98,0-5.66,6.25-5.66,10.18c0,1.52,0,3.79,0.25,6.1c0.15,2.11,0.64,4.43,1.57,6.15c0.88,1.67,2.16,2.56,3.54,2.56
			c1.23,0,2.31-0.44,2.9-0.98c0.74-1.18,1.08-2.85,1.08-6.2l8.56,0.39l-0.1,1.77C658.89,522.22,658.49,523.9,657.31,526.11z"/>
		<path class="st0" d="M682.98,529.7c-2.36,1.48-4.38,1.92-6.15,1.77c-0.88-0.98-1.33-4.28-1.33-4.28
			c-1.08,0.39-3.34,1.52-4.57,1.52c-5.07,0-9.39-2.46-9.39-7.87c0-0.93,0.1-1.82,0.34-2.7c0.59-2.16,1.87-4.33,3.69-5.85
			c1.67-1.38,3.79-2.02,6.25-2.02c0.93,0,2.16,0.2,3,0.39v-1.28l-0.1-2.12c-0.34-2.11-0.74-1.97-1.72-1.72
			c-0.44,0.1-3.15,0.88-3.64,1.13c-0.98,0.59-2.26,1.18-3.49,2.36c-0.93-0.64-1.38-2.16-1.82-3.79c-0.29-1.03-0.29-3.05-0.05-3.79
			c2.8-1.97,5.8-2.95,9.1-2.95c1.57,0,2.95,0.25,4.08,0.69c2.75,0.84,4.72,2.61,5.46,5.12c0.49,1.47,0.69,3.49,0.69,5.95
			c0,1.18-0.1,2.71-0.1,4.08c-0.05,2.16-0.05,3.15-0.05,4.28c0,4.97,0.49,7.82,1.82,8.85C685,527.49,683.96,529.11,682.98,529.7z
			 M671.96,515.63c-1.03,0-1.82,2.9-1.82,4.28c0,2.11,0.59,3.05,1.47,3.05c1.18,0,2.9-0.59,3.34-2.07l-0.05-3.79l-0.39-0.39
			C673.73,515.93,672.65,515.63,671.96,515.63z"/>
		<path class="st0" d="M709.09,513.67c0,0-5.11,0.93-7.52,0.93l0.15-3.64c0-0.84-0.25-1.82-0.88-1.67
			c-1.23,0.29-1.82,0.64-3.79,2.85l-1.18,1.77c-0.05,1.92-0.2,4.08-0.1,6.29c0.05,2.31,0,2.66,0.39,8.41l-9.05-0.15l0.05-3.93
			c0.29-5.7,0.49-8.66,0.34-15.39c-0.05-2.66-0.15-3.93-0.39-6.74c1.92-0.84,8.21-1.57,8.21-1.57c0.1,2.12,0.29,4.62,0.29,4.62
			c1.08-0.98,3.69-3.84,5.21-4.03c2.56-0.34,4.23,0.34,5.75,2.02c1.43,1.43,2.46,4.92,2.41,7.03L709.09,513.67z"/>
		<path class="st0" d="M712.92,530.49c0,0,0.15-5.07,0.2-7.62c0.34-5.21,0.15-9.64,0.15-15.54c0-6.49,0.1-13.23-0.2-19.57
			c0.1-1.23-0.44-2.8-0.79-3.74c2.21-0.84,3.79-1.13,5.36-1.03c0.49,0,3.69,0.29,4.33,0.39c-0.74,9.1-0.44,12.88-0.64,19.72
			c-0.05,2.8-0.05,12.39-0.15,18.29c-0.05,3.44,0.25,6.93,0.34,8.66C720.6,530.54,714.99,531.17,712.92,530.49z"/>
		<path class="st0" d="M741.5,522.17c0.54,0,2.66-0.29,5.56-0.69c-0.39,3.39-1.47,6.49-3.25,9.39l-3.49-0.64
			c-2.36-0.39-4.77-1.03-6.64-2.02h0.05c-3.25-1.57-5.41-3.44-6.64-5.7c-1.67-3.05-2.36-6.25-2.36-9.49c0-1.92,0.39-4.13,1.08-5.9
			c2.26-5.46,6.05-8.41,10.97-8.07h-0.05c7.52,0.44,11.21,5.85,11.02,16.18l-13.92,2.51C735.05,520.85,737.56,522.17,741.5,522.17z
			 M738.54,510.62c-0.1-1.43-0.05-2.31-0.44-3.39c-0.44-1.08-1.03-1.43-1.87-1.43c-0.69-0.05-1.97,0.89-2.56,2.51
			c-0.39,1.18-0.59,2.31-0.59,3.25C734.86,511.21,736.68,510.96,738.54,510.62z"/>
	</g>
</g>
</svg>
