<?xml version="1.0" encoding="utf-8"?>
<!-- Generator: Adobe Illustrator 27.7.0, SVG Export Plug-In . SVG Version: 6.00 Build 0)  -->
<svg version="1.1" id="Layer_1" xmlns="http://www.w3.org/2000/svg" xmlns:xlink="http://www.w3.org/1999/xlink" x="0px" y="0px"
	 viewBox="0 0 1280 1024" style="enable-background:new 0 0 1280 1024;" xml:space="preserve">
<style type="text/css">
	.st0{fill:#47352D;}
</style>
<g>
	<g>
		<path class="st0" d="M484.05,520.32l0.05-0.05c-0.98,2.11-2.46,3.84-4.62,5.46c-1.92,1.43-4.13,2.16-6.74,2.16
			c-2.71,0-5.07-0.74-7.28-2.31h0.05c-1.13-0.74-4.23-5.07-4.03-9.44c0-0.54,0.1-2.36,0.1-2.9c3.05-0.98,5.75-1.08,8.26-0.3
			l-0.1,2.9c-0.1,1.43,0,3.29,0.05,3.49c0.34,1.08,2.07,1.23,2.41,1.28c0.54,0.05,1.38-0.54,2.46-1.67
			c0.79-0.79,1.13-1.43,1.72-2.66c0.34-0.84,0.59-2.02,0.59-3.49c0-0.84-0.2-2.07-0.34-2.26c-0.69-0.89-2.02-1.18-4.03-1.52
			c-3.2-0.44-6.44-1.38-8.31-3.74c-1.13-1.43-1.57-2.75-1.77-4.08c-0.1-0.93-0.1-2.07-0.1-3.25v-0.79c0-3.25,0.34-7.38,2.66-10.08
			c2.26-2.51,5.36-3.29,8.7-3.1c3.93,0.34,6.69,1.38,7.92,2.9l-0.05-0.05c1.33,1.62,2.07,3.39,2.21,5.36v5.21l-8.21-0.1v-4.82
			c-0.05-0.39-0.1-0.79-0.15-0.84c-0.74-0.54-1.62-0.59-2.07-0.59c-0.74,0-1.38,0.39-2.07,1.18c-0.59,0.69-0.79,2.8-0.79,4.52
			c0,0.93,0.15,2.07,0.44,3.05c0.34,1.23,1.28,1.82,2.66,2.02c4.97,0.74,8.51,2.16,10.03,4.03c1.28,1.62,2.07,3.93,2.07,6.93
			C485.77,515.45,485.18,518.01,484.05,520.32z"/>
		<path class="st0" d="M507.85,524.75c-0.93,0.1-2.9-0.1-3.98-0.44l0.1-3.64c0.05-2.41,0.54-5.12,0.2-8.46
			c-0.05-3.93-0.64-5.75-1.23-7.67c-0.3-0.93-0.59-1.72-1.33-1.72c-1.77,0-3.15,3.34-3.64,4.72l0.54,5.36l0.89,8.16l0.29,3
			c-2.66,0.84-5.16,1.18-8.02,0.93l-0.34-3.2l-0.64-5.95c-0.39-3.39-0.79-7.38-1.23-11.75c-0.2-2.41-1.28-15.1-3.44-27.15
			c2.26-0.64,4.08-0.98,5.11-0.98c0.69,0,1.43,0,3.93,0.59l0.29,2.75c0.34,3,0.29,7.28,0.84,11.75c0.34,2.66,0.34,6.15,0.59,8.51
			c0.93-2.36,4.48-4.28,6.1-4.43c2.36-0.1,5.51,1.82,7.08,5.56c1.03,2.46,2.26,8.02,2.26,16.77c0,1.03,0,2.21-0.05,3.34
			c-0.05,0.39-0.15,3.05-0.05,3.49C512.13,524.3,508.84,524.85,507.85,524.75z"/>
		<path class="st0" d="M531.16,515.65c0.54,0,2.66-0.29,5.56-0.69c-0.39,3.39-1.48,6.49-3.25,9.39l-3.49-0.64
			c-2.36-0.39-4.77-1.03-6.64-2.02h0.05c-3.25-1.57-5.41-3.44-6.64-5.7c-1.67-3.05-2.36-6.25-2.36-9.49c0-1.92,0.39-4.13,1.08-5.9
			c2.26-5.46,6.05-8.41,10.97-8.07h-0.05c7.52,0.44,11.21,5.85,11.02,16.18l-13.92,2.51C524.72,514.32,527.23,515.65,531.16,515.65z
			 M528.21,504.09c-0.1-1.43-0.05-2.31-0.44-3.39c-0.44-1.08-1.03-1.43-1.87-1.43c-0.69-0.05-1.97,0.89-2.56,2.51
			c-0.39,1.18-0.59,2.31-0.59,3.25C524.52,504.68,526.34,504.44,528.21,504.09z"/>
		<path class="st0" d="M541.19,523.96c0,0,0.15-5.07,0.2-7.62c0.34-5.21,0.15-9.64,0.15-15.54c0-6.49,0.1-13.23-0.2-19.57
			c0.1-1.23-0.44-2.8-0.79-3.74c2.21-0.84,3.79-1.13,5.36-1.03c0.49,0,3.69,0.29,4.33,0.39c-0.74,9.1-0.44,12.88-0.64,19.72
			c-0.05,2.8-0.05,12.39-0.15,18.29c-0.05,3.44,0.25,6.93,0.34,8.66C548.86,524.01,543.26,524.65,541.19,523.96z"/>
		<path class="st0" d="M589.87,520.32l0.05-0.05c-0.98,2.11-2.46,3.84-4.62,5.46c-1.92,1.43-4.13,2.16-6.74,2.16
			c-2.71,0-5.07-0.74-7.28-2.31h0.05c-1.13-0.74-4.23-5.07-4.03-9.44c0-0.54,0.1-2.36,0.1-2.9c3.05-0.98,5.75-1.08,8.26-0.3
			l-0.1,2.9c-0.1,1.43,0,3.29,0.05,3.49c0.34,1.08,2.07,1.23,2.41,1.28c0.54,0.05,1.38-0.54,2.46-1.67
			c0.79-0.79,1.13-1.43,1.72-2.66c0.34-0.84,0.59-2.02,0.59-3.49c0-0.84-0.2-2.07-0.34-2.26c-0.69-0.89-2.02-1.18-4.03-1.52
			c-3.2-0.44-6.44-1.38-8.31-3.74c-1.13-1.43-1.57-2.75-1.77-4.08c-0.1-0.93-0.1-2.07-0.1-3.25v-0.79c0-3.25,0.34-7.38,2.66-10.08
			c2.26-2.51,5.36-3.29,8.7-3.1c3.93,0.34,6.69,1.38,7.92,2.9l-0.05-0.05c1.33,1.62,2.07,3.39,2.21,5.36v5.21l-8.21-0.1v-4.82
			c-0.05-0.39-0.1-0.79-0.15-0.84c-0.74-0.54-1.62-0.59-2.07-0.59c-0.74,0-1.38,0.39-2.07,1.18c-0.59,0.69-0.79,2.8-0.79,4.52
			c0,0.93,0.15,2.07,0.44,3.05c0.34,1.23,1.28,1.82,2.66,2.02c4.97,0.74,8.51,2.16,10.03,4.03c1.28,1.62,2.07,3.93,2.07,6.93
			C591.6,515.45,591.01,518.01,589.87,520.32z"/>
		<path class="st0" d="M598.97,494.4c-2.31,0-4.92-1.87-4.92-4.33s2.51-4.28,4.92-4.28c2.61,0,4.72,1.82,4.92,4.28
			C603.74,492.63,601.53,494.4,598.97,494.4z M601.18,523.42c-0.59,0-1.28,0-4.08-0.49c-0.25-5.07-0.98-14.85-1.97-23.9
			c2.66-0.84,5.46-1.18,8.31-0.79l0.34,3.1l-0.05-0.1c0.15,0.88,0.39,4.52,0.79,8.95c0.2,2.16,0.64,6.84,0.89,12.54
			C605.41,522.73,602.61,523.32,601.18,523.42z"/>
		<path class="st0" d="M608.07,523.96c0,0,0.15-5.07,0.2-7.62c0.34-5.21,0.15-9.64,0.15-15.54c0-6.49,0.1-13.23-0.2-19.57
			c0.1-1.23-0.44-2.8-0.79-3.74c2.21-0.84,3.79-1.13,5.36-1.03c0.49,0,3.69,0.29,4.33,0.39c-0.74,9.1-0.44,12.88-0.64,19.72
			c-0.05,2.8-0.05,12.39-0.15,18.29c-0.05,3.44,0.25,6.93,0.34,8.66C615.74,524.01,610.13,524.65,608.07,523.96z"/>
		<path class="st0" d="M640.62,510.49l-4.72,11.66c-1.23,0.34-3.25,0.84-4.48,0.98l-3.34-6.25c-0.98-1.92-1.67-3.39-2.31-4.77
			c-0.69-1.52-1.28-2.71-1.97-4.33c-0.74-1.67-1.48-3.25-2.16-4.87l-2.26-5.07c2.16-2.02,4.77-3.2,8.07-3.64
			c0.64,2.02,2.21,6.69,3.88,11.21c0.54,1.53,1.03,2.85,1.57,3.98c1.18-3,2.66-6.79,4.33-10.28l-0.05,0.05l2.16-4.92l6.74,4.03
			l-1.97,4.33C643.57,503.8,641.9,507.24,640.62,510.49z"/>
		<path class="st0" d="M664.27,515.65c0.54,0,2.66-0.29,5.56-0.69c-0.39,3.39-1.48,6.49-3.25,9.39l-3.49-0.64
			c-2.36-0.39-4.77-1.03-6.64-2.02h0.05c-3.25-1.57-5.41-3.44-6.64-5.7c-1.67-3.05-2.36-6.25-2.36-9.49c0-1.92,0.39-4.13,1.08-5.9
			c2.26-5.46,6.05-8.41,10.97-8.07h-0.05c7.52,0.44,11.21,5.85,11.02,16.18l-13.92,2.51C657.83,514.32,660.34,515.65,664.27,515.65z
			 M661.32,504.09c-0.1-1.43-0.05-2.31-0.44-3.39c-0.44-1.08-1.03-1.43-1.87-1.43c-0.69-0.05-1.97,0.89-2.56,2.51
			c-0.39,1.18-0.59,2.31-0.59,3.25C657.63,504.68,659.45,504.44,661.32,504.09z"/>
		<path class="st0" d="M695.15,507.14c0,0-5.12,0.93-7.52,0.93l0.15-3.64c0-0.84-0.25-1.82-0.89-1.67
			c-1.23,0.29-1.82,0.64-3.79,2.85l-1.18,1.77c-0.05,1.92-0.2,4.08-0.1,6.29c0.05,2.31,0,2.66,0.39,8.41l-9.05-0.15l0.05-3.93
			c0.3-5.7,0.49-8.66,0.34-15.39c-0.05-2.66-0.15-3.93-0.39-6.74c1.92-0.84,8.21-1.57,8.21-1.57c0.1,2.12,0.29,4.62,0.29,4.62
			c1.08-0.98,3.69-3.84,5.21-4.03c2.56-0.34,4.23,0.34,5.75,2.02c1.43,1.43,2.46,4.92,2.41,7.03L695.15,507.14z"/>
		<path class="st0" d="M709.46,503.95c4.33,1.47,9.84,3.39,9.84,10.33c0,5.66-4.67,9.59-11.11,9.59c-9.2,0-10.67-5.07-10.48-12.29
			l8.31,0.59c-0.64,2.07-0.2,3.39-0.1,3.93c0.1,0.64,0.79,1.43,2.02,1.43c1.72,0,3.05-1.62,3.05-3.54c0-2.41-2.36-3.2-4.67-4.03
			c-4.23-1.47-8.51-3.05-8.56-7.97c-0.1-6.54,6.2-8.7,11.31-8.7c4.72,0,8.85,0.44,9.15,9.44l-6,0.44c-0.15-2.61-1.62-3.84-2.71-3.89
			c-1.82-0.05-3.34,1.28-3.25,2.71C706.41,502.96,707.54,503.31,709.46,503.95z"/>
		<path class="st0" d="M733.07,505.27c0,1.77-0.1,4.97-0.1,9.2c0,1.62,0.34,3.3,1.48,3.3c0.84-0.1,3.34-3.79,3.54-4.28
			c2.71,0.39,4.77,1.28,6.39,3.29c-2.16,6.39-8.31,9.39-12.74,9.39c-0.54,0-1.23-0.05-1.82-0.2h0.05c-3.74-0.79-5.66-3.84-5.61-9.2
			c0-0.93,0-3.1,0.05-6.44v-4.28c-1.57,0.15-3.2,0.25-3.88,0.29v-7.52c1.28,0,3.2,0.15,3.74,0.1c0-1.57,0-3,0.1-3.93
			c0.1-3.05,0.49-7.47,0.79-11.95c3.29-0.34,6.15-0.05,8.51,0.88l-0.1,3l-0.15,1.97c-0.05,1.82-0.25,3.29-0.39,6.49
			c-0.1,1.13-0.1,0.59-0.1,2.71c1.53-0.15,3.44-0.25,4.97-0.34l3.98-0.25c0.74,1.53,0.69,3.05,0.69,4.13c0,0.64-0.15,2.8-0.29,3.54
			l-4.87,0.05C736.31,505.22,734.25,505.22,733.07,505.27z"/>
		<path class="st0" d="M762.62,515.65c0.54,0,2.66-0.29,5.56-0.69c-0.39,3.39-1.48,6.49-3.25,9.39l-3.49-0.64
			c-2.36-0.39-4.77-1.03-6.64-2.02h0.05c-3.25-1.57-5.41-3.44-6.64-5.7c-1.67-3.05-2.36-6.25-2.36-9.49c0-1.92,0.39-4.13,1.08-5.9
			c2.26-5.46,6.05-8.41,10.97-8.07h-0.05c7.52,0.44,11.21,5.85,11.02,16.18l-13.92,2.51C756.18,514.32,758.68,515.65,762.62,515.65z
			 M759.67,504.09c-0.1-1.43-0.05-2.31-0.44-3.39c-0.44-1.08-1.03-1.43-1.87-1.43c-0.69-0.05-1.97,0.89-2.56,2.51
			c-0.39,1.18-0.59,2.31-0.59,3.25C755.98,504.68,757.8,504.44,759.67,504.09z"/>
		<path class="st0" d="M776.48,494.4c-2.31,0-4.92-1.87-4.92-4.33s2.51-4.28,4.92-4.28c2.61,0,4.72,1.82,4.92,4.28
			C781.25,492.63,779.04,494.4,776.48,494.4z M778.7,523.42c-0.59,0-1.28,0-4.08-0.49c-0.25-5.07-0.98-14.85-1.97-23.9
			c2.66-0.84,5.46-1.18,8.31-0.79l0.34,3.1l-0.05-0.1c0.15,0.88,0.39,4.52,0.79,8.95c0.2,2.16,0.64,6.84,0.88,12.54
			C782.93,522.73,780.12,523.32,778.7,523.42z"/>
		<path class="st0" d="M808.7,519.09c0,0.49,0,0.93,0.34,4.23l-9.64-1.77c0.29-1.87,0.29-2.85,0.44-3.88
			c0.2-1.33,0.44-4.43,0.93-6.98c0.34-1.97,0.64-3.79,0.64-5.95c0-1.28-0.25-2.36-0.74-2.7c-0.88,0.05-4.23,3.05-5.66,4.87
			c0.1,3.1,0.05,4.43,0,5.85c-0.05,1.18-0.25,8.41-0.05,9.2l-8.56,0.74c0,0,0.54-10.82,0.59-14.02c0.05-2.9-0.79-13.03-0.79-13.03
			c1.62-0.39,4.82-1.03,8.06-0.69c0,0,0.2,3.93,0.2,4.52c1.18-1.82,3.93-4.33,6.39-4.87c1.03-0.25,2.95,0,3.84,0.34
			c4.23,1.82,5.11,5.56,5.11,9.25c0,1.67-0.39,3.84-0.59,5.71C808.94,511.67,808.7,515.99,808.7,519.09z"/>
	</g>
</g>
</svg>
