<?xml version="1.0" encoding="utf-8"?>
<!-- Generator: Adobe Illustrator 27.7.0, SVG Export Plug-In . SVG Version: 6.00 Build 0)  -->
<svg version="1.1" id="Layer_1" xmlns="http://www.w3.org/2000/svg" xmlns:xlink="http://www.w3.org/1999/xlink" x="0px" y="0px"
	 viewBox="0 0 1280 1024" style="enable-background:new 0 0 1280 1024;" xml:space="preserve">
<style type="text/css">
	.st0{fill:#47352D;}
</style>
<g>
	<g>
		<path class="st0" d="M526.35,491.22l-4.67-0.54l-6.54-0.1c-0.25,2.26-0.1,6.69-0.15,10.13c-0.05,2.36,0.2,4.77,0.54,12l0.2,2.56
			c-1.57,1.03-4.57,1.23-9.2,0.98l-0.2-3.39l0.54-12.69l0.39-9.69c-2.02-0.15-4.03-0.15-6.44,0.05l-3.84,0.69
			c-0.29-1.48-0.29-3.79-0.29-4.52c0-0.29,0.39-2.75,0.74-3.88l3.1,0.39c3.1,0.05,5.56-0.05,11.07,0
			c3.93,0.05,10.43-0.39,10.43-0.39l4.33-0.25C526.7,483.84,526.65,489.21,526.35,491.22z"/>
		<path class="st0" d="M547.3,517.48c-2.36,1.48-4.38,1.92-6.15,1.77c-0.89-0.98-1.33-4.28-1.33-4.28
			c-1.08,0.39-3.34,1.52-4.57,1.52c-5.07,0-9.39-2.46-9.39-7.87c0-0.93,0.1-1.82,0.34-2.7c0.59-2.16,1.87-4.33,3.69-5.85
			c1.67-1.38,3.79-2.02,6.25-2.02c0.93,0,2.16,0.2,3,0.39v-1.28l-0.1-2.12c-0.34-2.11-0.74-1.97-1.72-1.72
			c-0.44,0.1-3.15,0.88-3.64,1.13c-0.98,0.59-2.26,1.18-3.49,2.36c-0.93-0.64-1.38-2.16-1.82-3.79c-0.29-1.03-0.29-3.05-0.05-3.79
			c2.8-1.97,5.8-2.95,9.1-2.95c1.57,0,2.95,0.25,4.08,0.69c2.75,0.84,4.72,2.61,5.46,5.12c0.49,1.47,0.69,3.49,0.69,5.95
			c0,1.18-0.1,2.71-0.1,4.08c-0.05,2.16-0.05,3.15-0.05,4.28c0,4.97,0.49,7.82,1.82,8.85C549.31,515.27,548.28,516.89,547.3,517.48z
			 M536.28,503.42c-1.03,0-1.82,2.9-1.82,4.28c0,2.11,0.59,3.05,1.48,3.05c1.18,0,2.9-0.59,3.34-2.07l-0.05-3.79l-0.39-0.39
			C538.05,503.71,536.97,503.42,536.28,503.42z"/>
		<path class="st0" d="M552.07,518.27c0,0,0.15-5.07,0.2-7.62c0.34-5.21,0.15-9.64,0.15-15.54c0-6.49,0.1-13.23-0.2-19.57
			c0.1-1.23-0.44-2.8-0.79-3.74c2.21-0.84,3.79-1.13,5.36-1.03c0.49,0,3.69,0.29,4.33,0.39c-0.74,9.1-0.44,12.88-0.64,19.72
			c-0.05,2.8-0.05,12.39-0.15,18.29c-0.05,3.44,0.25,6.93,0.34,8.66C559.74,518.32,554.13,518.96,552.07,518.27z"/>
		<path class="st0" d="M570.01,488.71c-2.31,0-4.92-1.87-4.92-4.33s2.51-4.28,4.92-4.28c2.61,0,4.72,1.82,4.92,4.28
			C574.79,486.94,572.57,488.71,570.01,488.71z M572.23,517.73c-0.59,0-1.28,0-4.08-0.49c-0.25-5.07-0.98-14.85-1.97-23.9
			c2.66-0.84,5.46-1.18,8.31-0.79l0.34,3.1l-0.05-0.1c0.15,0.88,0.39,4.52,0.79,8.95c0.2,2.16,0.64,6.84,0.88,12.54
			C576.46,517.04,573.65,517.63,572.23,517.73z"/>
		<path class="st0" d="M592.44,499.58c0,1.77-0.1,4.97-0.1,9.2c0,1.62,0.34,3.3,1.48,3.3c0.84-0.1,3.34-3.79,3.54-4.28
			c2.71,0.39,4.77,1.28,6.39,3.29c-2.16,6.39-8.31,9.39-12.74,9.39c-0.54,0-1.23-0.05-1.82-0.2h0.05c-3.74-0.79-5.66-3.84-5.61-9.2
			c0-0.93,0-3.1,0.05-6.44v-4.28c-1.57,0.15-3.2,0.25-3.88,0.29v-7.52c1.28,0,3.2,0.15,3.74,0.1c0-1.57,0-3,0.1-3.93
			c0.1-3.05,0.49-7.47,0.79-11.95c3.29-0.34,6.15-0.05,8.51,0.88l-0.1,3l-0.15,1.97c-0.05,1.82-0.25,3.29-0.39,6.49
			c-0.1,1.13-0.1,0.59-0.1,2.71c1.53-0.15,3.44-0.25,4.97-0.34l3.98-0.25c0.74,1.53,0.69,3.05,0.69,4.13c0,0.64-0.15,2.8-0.29,3.54
			l-4.87,0.05C595.68,499.53,593.62,499.53,592.44,499.58z"/>
		<path class="st0" d="M624.75,519.06c-0.93,0.1-2.9-0.1-3.98-0.44l0.1-3.64c0.05-2.41,0.54-5.12,0.2-8.46
			c-0.05-3.93-0.64-5.75-1.23-7.67c-0.29-0.93-0.59-1.72-1.33-1.72c-1.77,0-3.15,3.34-3.64,4.72l0.54,5.36l0.88,8.16l0.29,3
			c-2.66,0.84-5.16,1.18-8.02,0.93l-0.34-3.2l-0.64-5.95c-0.39-3.39-0.79-7.38-1.23-11.75c-0.2-2.41-1.28-15.1-3.44-27.15
			c2.26-0.64,4.08-0.98,5.12-0.98c0.69,0,1.43,0,3.93,0.59l0.3,2.75c0.34,3,0.29,7.28,0.84,11.75c0.34,2.66,0.34,6.15,0.59,8.51
			c0.93-2.36,4.48-4.28,6.1-4.43c2.36-0.1,5.51,1.82,7.08,5.56c1.03,2.46,2.26,8.02,2.26,16.77c0,1.03,0,2.21-0.05,3.34
			c-0.05,0.39-0.15,3.05-0.05,3.49C629.03,518.61,625.73,519.16,624.75,519.06z"/>
		<path class="st0" d="M652.48,517.48c-2.36,1.48-4.38,1.92-6.15,1.77c-0.89-0.98-1.33-4.28-1.33-4.28
			c-1.08,0.39-3.34,1.52-4.57,1.52c-5.07,0-9.39-2.46-9.39-7.87c0-0.93,0.1-1.82,0.34-2.7c0.59-2.16,1.87-4.33,3.69-5.85
			c1.67-1.38,3.79-2.02,6.25-2.02c0.93,0,2.16,0.2,3,0.39v-1.28l-0.1-2.12c-0.34-2.11-0.74-1.97-1.72-1.72
			c-0.44,0.1-3.15,0.88-3.64,1.13c-0.98,0.59-2.26,1.18-3.49,2.36c-0.93-0.64-1.38-2.16-1.82-3.79c-0.29-1.03-0.29-3.05-0.05-3.79
			c2.8-1.97,5.8-2.95,9.1-2.95c1.57,0,2.95,0.25,4.08,0.69c2.75,0.84,4.72,2.61,5.46,5.12c0.49,1.47,0.69,3.49,0.69,5.95
			c0,1.18-0.1,2.71-0.1,4.08c-0.05,2.16-0.05,3.15-0.05,4.28c0,4.97,0.49,7.82,1.82,8.85C654.5,515.27,653.46,516.89,652.48,517.48z
			 M641.46,503.42c-1.03,0-1.82,2.9-1.82,4.28c0,2.11,0.59,3.05,1.48,3.05c1.18,0,2.9-0.59,3.34-2.07l-0.05-3.79l-0.39-0.39
			C643.24,503.71,642.15,503.42,641.46,503.42z"/>
		<path class="st0" d="M692.31,514.63l0.05-0.05c-0.98,2.11-2.46,3.84-4.62,5.46c-1.92,1.43-4.13,2.16-6.74,2.16
			c-2.71,0-5.07-0.74-7.28-2.31h0.05c-1.13-0.74-4.23-5.07-4.03-9.44c0-0.54,0.1-2.36,0.1-2.9c3.05-0.98,5.75-1.08,8.26-0.3
			l-0.1,2.9c-0.1,1.43,0,3.29,0.05,3.49c0.34,1.08,2.07,1.23,2.41,1.28c0.54,0.05,1.38-0.54,2.46-1.67
			c0.79-0.79,1.13-1.43,1.72-2.66c0.34-0.84,0.59-2.02,0.59-3.49c0-0.84-0.2-2.07-0.34-2.26c-0.69-0.89-2.02-1.18-4.03-1.52
			c-3.2-0.44-6.44-1.38-8.31-3.74c-1.13-1.43-1.57-2.75-1.77-4.08c-0.1-0.93-0.1-2.07-0.1-3.25v-0.79c0-3.25,0.34-7.38,2.66-10.08
			c2.26-2.51,5.36-3.29,8.71-3.1c3.93,0.34,6.69,1.38,7.92,2.9l-0.05-0.05c1.33,1.62,2.07,3.39,2.21,5.36v5.21l-8.21-0.1v-4.82
			c-0.05-0.39-0.1-0.79-0.15-0.84c-0.74-0.54-1.62-0.59-2.07-0.59c-0.74,0-1.38,0.39-2.07,1.18c-0.59,0.69-0.79,2.8-0.79,4.52
			c0,0.93,0.15,2.07,0.44,3.05c0.34,1.23,1.28,1.82,2.66,2.02c4.97,0.74,8.51,2.16,10.03,4.03c1.28,1.62,2.07,3.93,2.07,6.93
			C694.03,509.76,693.44,512.32,692.31,514.63z"/>
		<path class="st0" d="M716.11,519.06c-0.93,0.1-2.9-0.1-3.98-0.44l0.1-3.64c0.05-2.41,0.54-5.12,0.2-8.46
			c-0.05-3.93-0.64-5.75-1.23-7.67c-0.29-0.93-0.59-1.72-1.33-1.72c-1.77,0-3.15,3.34-3.64,4.72l0.54,5.36l0.88,8.16l0.29,3
			c-2.66,0.84-5.16,1.18-8.02,0.93l-0.34-3.2l-0.64-5.95c-0.39-3.39-0.79-7.38-1.23-11.75c-0.2-2.41-1.28-15.1-3.44-27.15
			c2.26-0.64,4.08-0.98,5.12-0.98c0.69,0,1.43,0,3.93,0.59l0.3,2.75c0.34,3,0.29,7.28,0.84,11.75c0.34,2.66,0.34,6.15,0.59,8.51
			c0.93-2.36,4.48-4.28,6.1-4.43c2.36-0.1,5.51,1.82,7.08,5.56c1.03,2.46,2.26,8.02,2.26,16.77c0,1.03,0,2.21-0.05,3.34
			c-0.05,0.39-0.15,3.05-0.05,3.49C720.39,518.61,717.09,519.16,716.11,519.06z"/>
		<path class="st0" d="M728.5,488.71c-2.31,0-4.92-1.87-4.92-4.33s2.51-4.28,4.92-4.28c2.61,0,4.72,1.82,4.92,4.28
			C733.27,486.94,731.06,488.71,728.5,488.71z M730.71,517.73c-0.59,0-1.28,0-4.08-0.49c-0.25-5.07-0.98-14.85-1.97-23.9
			c2.66-0.84,5.46-1.18,8.31-0.79l0.34,3.1l-0.05-0.1c0.15,0.88,0.39,4.52,0.79,8.95c0.2,2.16,0.64,6.84,0.88,12.54
			C734.94,517.04,732.14,517.63,730.71,517.73z"/>
		<path class="st0" d="M758.99,510.45c-2.75,3.98-7.62,4.57-9.93,3.84c-1.03-0.29-2.85-2.26-3.69-3.44
			c-0.15,2.02-0.84,6.93-1.28,10.28c-0.29,2.26-0.64,5.02-1.23,8.02l-0.2,2.66c-2.9-0.15-6.05-0.79-8.51-1.87
			c0.84-3.93,1.72-8.31,2.11-10.57c0.25-1.33,0.84-4.52,0.89-6.74c0.49-3.39,1.28-11.9,1.77-15.39c0.39-3.25,0.39-6.34-0.1-9.29
			c2.95-1.13,5.16-1.67,6.79-1.43c0.64,0.1,2.02,0.2,3.2,0.79l-0.49,3.59c1.03-0.93,3.54-2.56,4.87-2.36
			c2.66,0.44,4.77,1.57,6.2,3.64c2.07,3.1,3,6.39,2.51,9.98C761.55,504.55,760.56,508.24,758.99,510.45z M753.78,498.7
			c-0.25-3.05-1.08-3.15-1.13-3.15c-0.93-0.1-1.97,0.15-3.15,0.79c-0.84,0.34-1.52,1.13-2.07,2.11c0-0.05-0.2,0.49-0.34,0.74
			l-0.69,5.31c1.38,1.52,2.41,2.26,2.95,2.26c0.64,0.05,1.67-0.39,2.7-1.62c0.98-1.28,1.43-2.9,1.67-4.67
			C753.83,499.63,753.78,499.04,753.78,498.7z"/>
		<path class="st0" d="M801.77,517.68l-8.56,0.74c-0.29-2.07-0.44-5.8-0.44-8.21c0-3.54-0.25-9.49-0.39-10.97
			c-0.2-1.38-0.79-1.92-0.74-2.02c-2.26-0.44-3.79,4.87-3.89,7.67c-0.2,3.93-0.29,7.57-0.2,11.11l-8.85-0.34l0.44-3.2
			c0.49-3.29,0.74-7.23,0.74-10.57c0-1.57-0.44-4.08-1.18-4.38s-3.84,0.59-5.07,3.44c-0.2,6.74,0.1,4.28,0.1,9.15
			c0,1.38,0.15,4.28,0.15,4.28l-9.1-0.44c0.1-0.15,0.59-5.75,0.89-8.31c0.39-3.29,0-10.13-1.87-13.03c0,0,5.9-2.95,7.82-3.49
			c0,0,1.18,1.97,1.52,3.98c1.18-1.43,3.25-3.25,5.46-3.64c1.18-0.2,2.8-0.1,4.28,0.79c1.82,1.13,2.75,2.11,3.44,3.44
			c0.84-1.92,3.74-3.84,5.66-3.93c3.1-0.15,5.16,0.59,6.98,2.9c1.92,2.61,1.77,6.54,1.87,10.23c0,3.29,0.15,7.82,0.29,10.18
			C801.18,514.19,801.53,515.96,801.77,517.68z"/>
		<path class="st0" d="M825.92,517.48c-2.36,1.48-4.38,1.92-6.15,1.77c-0.89-0.98-1.33-4.28-1.33-4.28
			c-1.08,0.39-3.34,1.52-4.57,1.52c-5.07,0-9.39-2.46-9.39-7.87c0-0.93,0.1-1.82,0.34-2.7c0.59-2.16,1.87-4.33,3.69-5.85
			c1.67-1.38,3.79-2.02,6.25-2.02c0.93,0,2.16,0.2,3,0.39v-1.28l-0.1-2.12c-0.34-2.11-0.74-1.97-1.72-1.72
			c-0.44,0.1-3.15,0.88-3.64,1.13c-0.98,0.59-2.26,1.18-3.49,2.36c-0.93-0.64-1.38-2.16-1.82-3.79c-0.29-1.03-0.29-3.05-0.05-3.79
			c2.8-1.97,5.8-2.95,9.1-2.95c1.57,0,2.95,0.25,4.08,0.69c2.75,0.84,4.72,2.61,5.46,5.12c0.49,1.47,0.69,3.49,0.69,5.95
			c0,1.18-0.1,2.71-0.1,4.08c-0.05,2.16-0.05,3.15-0.05,4.28c0,4.97,0.49,7.82,1.82,8.85C827.93,515.27,826.9,516.89,825.92,517.48z
			 M814.9,503.42c-1.03,0-1.82,2.9-1.82,4.28c0,2.11,0.59,3.05,1.48,3.05c1.18,0,2.9-0.59,3.34-2.07l-0.05-3.79l-0.39-0.39
			C816.67,503.71,815.59,503.42,814.9,503.42z"/>
		<path class="st0" d="M852.71,513.4c0,0.49,0,0.93,0.34,4.23l-9.64-1.77c0.29-1.87,0.29-2.85,0.44-3.88
			c0.2-1.33,0.44-4.43,0.93-6.98c0.34-1.97,0.64-3.79,0.64-5.95c0-1.28-0.25-2.36-0.74-2.7c-0.88,0.05-4.23,3.05-5.66,4.87
			c0.1,3.1,0.05,4.43,0,5.85c-0.05,1.18-0.25,8.41-0.05,9.2l-8.56,0.74c0,0,0.54-10.82,0.59-14.02c0.05-2.9-0.79-13.03-0.79-13.03
			c1.62-0.39,4.82-1.03,8.07-0.69c0,0,0.2,3.93,0.2,4.52c1.18-1.82,3.93-4.33,6.39-4.87c1.03-0.25,2.95,0,3.84,0.34
			c4.23,1.82,5.11,5.56,5.11,9.25c0,1.67-0.39,3.84-0.59,5.71C852.96,505.98,852.71,510.3,852.71,513.4z"/>
	</g>
</g>
</svg>
