<?xml version="1.0" encoding="UTF-8"?>
<svg id="Layer_1" data-name="Layer 1" xmlns="http://www.w3.org/2000/svg" viewBox="0 0 263.309 323.19">
  <defs>
    <style>
      .cls-1 {
        fill: #184753;
        stroke-width: 0px;
      }
    </style>
  </defs>
  <path class="cls-1" d="m99.827,127.428c-5.459,1.094-8.703,5.963-10.247,10.962-1.728,5.593-1.721,11.756-1.866,17.555-.339,13.614.774,27.416,4.341,40.594,6.042,22.322,20.051,43.664,41.292,54.036,20.731,10.123,47.693,8.199,64.364-8.719,8.313-8.437,13.466-19.556,16.39-30.92,3.214-12.492,4.238-25.798,2.716-38.613-1.502-12.655-5.387-25.046-12.364-35.783-6.225-9.58-14.631-17.881-24.691-23.383-2.547-1.393-5.203-2.579-7.912-3.621-1.8-.692-3.916.764-4.391,2.493-.553,2.014.687,3.696,2.493,4.391.355.137.709.278,1.063.417.68.268.351.142.2.078.583.245,1.159.508,1.732.776,1.259.59,2.496,1.226,3.709,1.904,2.315,1.294,4.541,2.747,6.666,4.334,1.597,1.193,3.856,3.142,5.628,4.863,1.914,1.859,3.718,3.83,5.402,5.9.846,1.039,1.157,1.447,1.996,2.612.818,1.137,1.604,2.299,2.354,3.482,1.398,2.204,2.677,4.484,3.829,6.826,2.495,5.072,4.374,10.655,5.683,16.399,2.67,11.718,2.75,24.435.831,36.244-1.779,10.946-5.023,21.262-11.242,30.333-5.721,8.345-14.126,14.434-23.846,17.2-5.209,1.482-9.548,1.995-15.05,1.874-2.648-.058-5.236-.305-7.347-.661-2.617-.441-5.205-1.062-7.736-1.861-9.597-3.032-18.2-8.927-25.275-16.378-7.016-7.389-12.805-16.894-16.397-26.236-4.518-11.749-6.637-24.112-7.195-36.591-.289-6.45-.181-12.914.216-19.357.077-1.252.169-2.5.299-3.748.074-.707.021-.171,0-.025.048-.327.099-.653.155-.979.113-.654.246-1.304.401-1.949.256-1.063.581-2.1.968-3.121-.252.665.323-.679.425-.872.262-.497.56-.967.868-1.436.316-.48-.551.591.073-.105.163-.182.321-.367.491-.542.169-.173.352-.331.524-.5.642-.632-.385.235.072-.061.202-.131.4-.265.61-.383.009-.005.857-.418.359-.202-.501.217.402-.126.409-.128.295-.089.594-.154.896-.214,1.891-.379,2.978-2.627,2.493-4.391-.541-1.97-2.494-2.873-4.391-2.493h0Z"/>
  <g>
    <path class="cls-1" d="m103.462,16.253c-14.034-3.35-28.184,4.056-36.11,15.537-8.131,11.777-10.13,27.313-8.475,41.258,1.743,14.686,7.413,28.559,16.571,40.181,8.638,10.961,20.912,19.895,34.852,22.386,14.929,2.668,30.626-1.156,43.814-8.305,11.281-6.116,21.146-15.066,28.115-25.857,6.795-10.521,10.692-23.182,9.707-35.762-1.019-13.014-6.841-25.177-15.673-34.708-9.025-9.738-21.119-16.43-34.158-18.914-14.19-2.703-29.117-1.001-42.45,4.509-3.357,1.387-6.622,2.95-9.769,4.766-3.978,2.295-.388,8.466,3.603,6.164,11.37-6.559,24.332-9.975,37.443-9.55,3.388.11,6.132.397,9.275.995,3.307.63,6.565,1.523,9.726,2.683,2.604.955,4.965,2.053,7.709,3.612,1.168.663,2.313,1.367,3.432,2.109,1.143.757,2.801,1.951,3.428,2.456,2.284,1.843,4.454,3.809,6.463,5.95,2.12,2.259,3.576,4.078,5.155,6.392,1.64,2.404,3.098,4.932,4.346,7.561.73,1.538.912,1.976,1.473,3.49.525,1.416.988,2.855,1.387,4.312.367,1.342.679,2.699.933,4.067.337,1.815.394,2.264.538,4.107.225,2.873.194,5.765-.084,8.633-.034.355-.077.71-.115,1.065-.123,1.159.117-.687-.06.465-.09.587-.183,1.172-.289,1.756-.276,1.516-.62,3.02-1.028,4.507-.376,1.374-.807,2.733-1.288,4.073-.201.56-.411,1.116-.629,1.67-.399,1.012-.306.79-.754,1.782-1.186,2.625-2.561,5.162-4.097,7.599-1.684,2.671-3.224,4.761-5.033,6.905-1.896,2.247-3.93,4.377-6.082,6.38-.99.922-2.006,1.817-3.044,2.685-1.386,1.157-2.011,1.643-3.358,2.622-2.391,1.736-4.882,3.334-7.458,4.78-1.284.721-2.589,1.404-3.913,2.047-.55.267-1.104.528-1.661.781-.334.152-.67.298-1.005.448-.396.169-.449.193-.157.072-.225.094-.45.187-.676.279-6.576,2.676-13.656,4.562-20.629,5.002-6.933.438-13.514-.444-19.994-3.004.087.034-1.12-.464-.621-.251-.367-.157-.73-.322-1.092-.49-.664-.307-1.321-.63-1.971-.966-1.48-.765-2.924-1.601-4.326-2.5-2.76-1.769-4.817-3.368-7.229-5.559-9.721-8.829-16.541-20.397-20.049-32.943s-3.883-26.118.448-38.48c1.965-5.608,5.225-11.053,9.778-15.159,1.244-1.121,1.87-1.606,3.21-2.497,1.275-.848,2.607-1.612,3.986-2.28,1.139-.551,2.221-.981,3.749-1.445.724-.22,1.456-.413,2.194-.577.245-.055.492-.106.739-.154.126-.025,1.467-.251.909-.172,1.482-.21,3.002-.258,4.497-.193,1.665.072,2.189.156,3.901.564,1.874.447,3.868-.59,4.391-2.493.498-1.814-.61-3.941-2.493-4.391h0Z"/>
    <path class="cls-1" d="m90.384,51.522c-.563,1.432-.241,3.04.399,4.378.515,1.078,1.512,2.057,2.546,2.642,2.292,1.296,5.194,1.053,7.296-.512,1.804-1.343,3.211-3.217,3.767-5.426.432-1.717.475-3.713-.12-5.4-.774-2.198-2.219-3.867-4.442-4.665-2.089-.75-4.6-.206-6.336,1.117-1.691,1.289-3.028,2.935-4.076,4.787-.777,1.373-1.206,3.012-.704,4.563.512,1.582,1.684,2.65,3.22,3.214,2.456.902,5.403-.2,6.826-2.331,1.587-2.377,1.073-5.376.123-7.877-.454-1.196-1.205-2.138-2.493-2.493-1.217-.335-2.586.011-3.473.918-1.774,1.815-2.293,4.323-1.782,6.759.185.881.58,1.784,1.121,2.506.588.785,1.05,1.255,1.839,1.839.499.369,1.07.577,1.645.809,1.023.412,2.295-.008,3.111-.639.845-.653,1.468-1.693,1.407-2.803-.156-2.806-1.993-5.39-4.81-6.061-.92-.219-1.924-.124-2.75.36-.74.433-1.446,1.282-1.64,2.133-.417,1.832.55,3.927,2.493,4.391.14.033.27.072.405.121l-.853-.36c.264.112.499.251.726.426l-.722-.558c.182.155.341.32.49.507l-.558-.722c.14.194.255.392.354.609l-.36-.853c.088.222.15.441.19.676l-.127-.949c.013.093.021.187.024.281l4.518-3.442-.108-.043.853.36c-.246-.111-.469-.243-.685-.406l.722.558c-.207-.169-.389-.352-.559-.559l.558.722c-.21-.275-.381-.567-.52-.884l.36.853c-.146-.36-.244-.727-.298-1.112l.127.949c-.038-.345-.039-.686.002-1.032l-.127.949c.045-.302.119-.591.23-.876l-.36.853c.105-.246.231-.472.387-.69l-.558.722c.095-.122.194-.237.302-.347l-5.966-1.575c.306.805.585,1.617.723,2.47l-.127-.949c.059.442.075.874.024,1.318l.127-.949c-.044.272-.11.528-.206.785l.36-.853c-.085.197-.177.381-.304.553l.558-.722c-.107.131-.223.244-.354.35l.722-.558c-.165.121-.337.219-.524.301l.853-.36c-.224.089-.448.149-.686.185l.949-.127c-.233.027-.459.029-.692.002l.949.127c-.187-.03-.364-.076-.54-.148l.853.36c-.109-.051-.208-.108-.307-.177l.722.558c-.092-.073-.172-.15-.247-.24l.558.722c-.07-.097-.126-.194-.173-.305l.36.853c-.032-.091-.054-.177-.073-.271l.127.949c-.018-.148-.017-.285-.006-.434l-.127.949c.038-.227.101-.433.187-.646l-.36.853c.39-.839.939-1.628,1.497-2.363l-.558.722c.457-.588.954-1.135,1.534-1.604l-.722.558c.368-.284.755-.524,1.183-.706l-.853.36c.295-.113.589-.191.902-.234l-.949.127c.276-.026.544-.023.82.01l-.949-.127c.272.044.526.111.781.214l-.853-.36c.23.103.439.225.641.375l-.722-.558c.223.177.417.375.593.598l-.558-.722c.196.264.357.545.492.845l-.36-.853c.194.463.317.941.385,1.438l-.127-.949c.066.558.062,1.113-.007,1.671l.127-.949c-.08.554-.221,1.087-.438,1.603l.36-.853c-.211.473-.478.912-.786,1.328l.558-.722c-.308.397-.648.753-1.039,1.07l.722-.558c-.312.238-.638.438-.996.598l.853-.36c-.317.128-.633.216-.972.265l.949-.127c-.236.024-.463.028-.699.003l.949.127c-.228-.036-.441-.094-.657-.175l.853.36c-.256-.109-.488-.242-.714-.405l.722.558c-.216-.171-.406-.357-.581-.57l.558.722c-.133-.18-.245-.363-.341-.565l.36.853c-.083-.201-.142-.4-.177-.615l.127.949c-.018-.172-.019-.335-.002-.508l-.127.949c.029-.177.075-.339.14-.505.318-.809.061-2.032-.36-2.75-.433-.74-1.282-1.446-2.133-1.64-.914-.208-1.939-.163-2.75.36-.827.533-1.282,1.221-1.64,2.133h0Z"/>
    <path class="cls-1" d="m143.698,47.151c-5.298,2.889-5.547,11.788.08,14.506,2.732,1.319,6.095,1.083,8.58-.705,1.458-1.049,2.498-2.335,3.14-4.019.553-1.451.535-3.152.163-4.645-.721-2.894-3.077-5.23-5.639-6.604-2.61-1.4-5.575-2.195-8.512-1.462-1.61.402-3.147,1.341-4.044,2.763-1.078,1.709-1.023,4.01.087,5.693,2.256,3.421,7.903,5.375,10.959,1.829,1.847-2.142,2.037-5.186-.004-7.283-1.671-1.717-4.332-1.683-6.346-.683-1.984.985-3.096,2.953-3.223,5.118-.126,2.154.905,4.181,2.047,5.932,1.019,1.562,3.208,2.36,4.883,1.28,1.74-1.122,2.138-3.074,1.28-4.883-1.005-2.121-3.613-3.627-5.957-3.392-.927.093-1.861.324-2.524,1.045-.677.738-.941,1.531-1.045,2.524-.171,1.623.649,3.346,1.794,4.454,1.38,1.336,3.334,1.912,5.212,1.505,3.148-.683,5.263-4.258,4.263-7.345l-5.243,4.031c1.319.585,2.483.931,3.934,1.039,1.105.083,2.277-.083,3.333-.406,1.784-.545,3.098-2.521,2.493-4.391-.582-1.799-2.478-3.077-4.391-2.493-.323.099-.646.174-.979.229l.949-.127c-.605.08-1.201.081-1.806.006l.949.127c-.536-.084-1.045-.224-1.548-.427l.853.36-.184-.082c-1.354-.601-2.726-.678-3.964.279-1.085.838-1.72,2.391-1.279,3.752.049.151.082.289.105.446l-.127-.949c.012.156.011.299,0,.454l.127-.949c-.03.206-.077.396-.146.592l.36-.853c-.051.119-.111.23-.168.346-.185.375-.327.055.241-.288-.065.04-.173.151-.221.212.416-.531.632-.442.21-.234l.853-.36c-.194.078-.38.129-.587.159l.949-.127c-.172.01-.324.005-.495-.015l.949.127c-.166-.034-.314-.076-.473-.136l.853.36c-.101-.046-.196-.099-.295-.149-.49-.25.508.501.264.201-.085-.104-.371-.434.01.044s.093.073.025-.066l.36.853c-.084-.209-.141-.409-.175-.632l.127.949c-.012-.172-.009-.324.009-.496l-3.569,3.569c.227-.023.443-.023.67,0l-.949-.127c.283.046.542.121.805.232l-.853-.36c.126.062.244.143.369.203.295.142-.669-.616-.262-.192.337.351-.239-.288-.233-.338-.004.038.224.393.246.44l6.164-3.603c-.428-.657-.834-1.321-1.153-2.039l.36.853c-.185-.453-.321-.901-.392-1.385l.127.949c-.026-.273-.029-.534-.007-.808l-.127.949c.032-.224.073-.436.149-.65l-.36.853c.052-.119.115-.226.174-.34.256-.488-.675.74-.188.279.255-.241-.881.542-.312.241.134-.071.262-.148.401-.211l-.853.36c.198-.079.395-.137.605-.175l-.949.127c.201-.027.393-.032.595-.011l-.949-.127c.153.026.291.065.435.123l-.853-.36c.323.164.368.365-.353-.306.37.344-.541-.82-.281-.331l-.36-.853c.063.152.101.282.129.444l-.127-.949c.011.158.007.295-.014.452l.127-.949c-.035.156-.078.292-.138.44l.36-.853c-.012.024-.135.283-.151.277.044.015.611-.805.197-.292-.197.243.626-.382.336-.264-.122.05-.238.127-.361.179l.853-.36c-.169.056-.323.091-.5.12l.949-.127c-.26.023-.506.019-.765-.009l.949.127c-.324-.056-.626-.144-.931-.264l.853.36c-.242-.108-.477-.225-.704-.363-.109-.066-.815-.579-.28-.172.525.4-.098-.129-.195-.216-.242-.275-.17-.177.216.294-.066-.101-.123-.206-.172-.316l.36.853c-.061-.159-.107-.307-.139-.474l.127.949c-.021-.167-.026-.324-.011-.491l-.127.949c.025-.154.063-.294.121-.439l-.36.853c.046-.095.134-.197.167-.295-.457.557-.568.71-.333.457.171-.155.111-.115-.18.12-.564.428-.144.113-.001.029.134-.079.272-.145.414-.208l-.853.36c.444-.181.901-.295,1.375-.364l-.949.127c.535-.064,1.065-.068,1.6-.003l-.949-.127c.862.128,1.703.411,2.506.744l-.853-.36c.476.205.941.432,1.388.694.246.144.487.297.72.46.08.056.184.167.275.198-.137-.047-.717-.577-.263-.192.377.32.706.675,1.032,1.045.258.293-.456-.681-.27-.342.062.113.148.217.216.328.135.221.252.45.359.686l-.36-.853c.18.429.306.867.374,1.327l-.127-.949c.049.427.045.844-.007,1.27l.127-.949c-.052.329-.136.638-.258.948l.36-.853c-.112.258-.249.49-.393.732-.296.497.597-.68.22-.281-.112.119-.22.24-.339.352-.114.108-.56.461-.014.039s.09-.079-.043.006c-.261.165-.534.303-.817.426l.853-.36c-.441.178-.891.302-1.361.372l.949-.127c-.42.05-.834.055-1.254.007l.949.127c-.37-.054-.722-.146-1.069-.284l.853.36c-.217-.095-.413-.216-.621-.328-.491-.265.661.605.28.222-.08-.08-.166-.154-.245-.236-.063-.066-.151-.212-.223-.254.086.05.555.818.285.339-.123-.218-.241-.427-.341-.657l.36.853c-.17-.425-.282-.86-.344-1.314l.127.949c-.051-.46-.049-.914.005-1.373l-.127.949c.065-.456.178-.894.347-1.323l-.36.853c.089-.209.185-.413.299-.608.056-.097.129-.186.181-.285.148-.278-.643.732-.271.349.14-.144.292-.282.429-.428.266-.285-.791.534-.344.27.119-.07.234-.144.356-.211,1.641-.895,2.304-3.296,1.28-4.883-1.073-1.664-3.128-2.238-4.883-1.28h0Z"/>
    <path class="cls-1" d="m97.759,84.012c5.111,10.139,13.004,19.751,23.729,24.148,5.079,2.082,10.762,2.611,16.134,1.471,5.599-1.189,10.199-4.508,13.579-9.046,3.508-4.707,5.329-10.521,7.028-16.069.564-1.843-.672-3.89-2.493-4.391-1.909-.524-3.824.643-4.391,2.493-1.39,4.537-2.568,8.419-4.945,12.334-.261.429-.533.852-.817,1.266-.177.258-.357.513-.546.763-.374.493.263-.311-.135.162-.77.916-1.597,1.748-2.493,2.54-.316.28-.295.259-.803.604-.481.326-.978.628-1.489.905-1.101.599-1.561.786-2.891,1.176-.495.145-.997.271-1.502.378-.254.054-.508.097-.762.147-1.207.238.312-.019-.4.064-1.23.142-2.476.172-3.713.111-.523-.026-1.046-.067-1.567-.128.472.055-.171-.026-.22-.034-.259-.044-.517-.088-.774-.138-1.219-.238-2.42-.568-3.589-.985-1.829-.653-4.048-1.851-5.935-3.135-1.818-1.238-3.463-2.676-5.158-4.399-3.979-4.046-7.057-8.63-9.684-13.841-.867-1.721-3.293-2.21-4.883-1.28-1.751,1.024-2.151,3.156-1.28,4.883h0Z"/>
    <path class="cls-1" d="m153.157,15.231c-.327-1.064-.308-.906-.237-2.017-.005.075-.079.445-.009.014.04-.249.1-.495.166-.738.045-.169.385-1.086.231-.751.711-1.547,1.604-2.42,3.091-3.261,1.127-.637,3.095-1.212,4.172-1.306.863-.075,1.731-.081,2.595-.021.185.013.37.029.555.047-.54-.051.068.006.154.021.488.086.973.184,1.453.307,1.825.468,2.616.804,4.251,1.828.87.545,1.106.738,1.648,1.225.643.577,1.252,1.202,1.792,1.878-.233-.292.349.509.448.661.246.378.476.767.69,1.164.148.275.47.934.485.969-.115-.268.12.318.11.29.109.304.216.607.312.915.583,1.875.72,2.789.676,4.777-.036,1.632-.436,3.612-1.038,4.941-.207.456-.44.9-.696,1.331-.096.161-.2.317-.296.478-.557.932.164-.142-.221.328-.311.38-.658.743-1.038,1.055-.325.266-.068.039-.008,0-.313.205-.631.375-.966.539-1.731.847-2.202,3.307-1.28,4.883,1.033,1.766,3.146,2.131,4.883,1.28,4.71-2.305,6.996-7.794,7.627-12.716.614-4.789-.485-9.965-3.18-13.999-5.581-8.355-17.093-11.934-26.208-7.319-5.424,2.746-8.89,9.087-7.045,15.095.566,1.842,2.493,3.014,4.391,2.493,1.822-.501,3.061-2.541,2.493-4.391h0Z"/>
    <path class="cls-1" d="m73.428,25.096c-5.127-1.604-10.499-3.186-15.927-2.523-5.363.655-10.124,3.191-12.989,7.891-2.541,4.168-3.492,9.54-3.171,14.368.334,5.031,2.078,10.056,5.859,13.545,4.154,3.834,9.711,5.486,15.261,5.77,1.927.098,3.569-1.711,3.569-3.569,0-2.015-1.636-3.471-3.569-3.569-1.829-.093-3.063-.265-5.077-.882-1.577-.483-2.972-1.101-4.558-2.285.308.23-.469-.411-.578-.512-.322-.297-.632-.609-.925-.935-.167-.186-.34-.378-.49-.577.055.073.192.251-.029-.07-.333-.485-.637-.989-.909-1.511-.374-.718-.511-1.067-.801-2.057-.13-.442-.241-.89-.337-1.341-.041-.194-.076-.389-.116-.583-.248-1.208.012.27-.073-.429-.119-.991-.154-1.996-.136-2.994.009-.466.031-.932.066-1.397.015-.199.035-.397.05-.596.095-1.248-.058.277.042-.423.13-.91.321-1.814.563-2.701.264-.969.584-1.871.871-2.455.334-.68.927-1.69,1.252-2.103-.203.258.303-.342.339-.381.13-.143.263-.285.4-.422.184-.184.376-.358.569-.532.053-.047.473-.367.196-.165,1.61-1.174,2.845-1.55,4.889-1.951.732-.144.393-.063.222-.042.326-.041.656-.063.984-.083.525-.031,1.05-.041,1.576-.031,1.166.023,2.254.137,3.36.344,2.623.491,5.175,1.29,7.718,2.086,1.839.575,3.893-.68,4.391-2.493.527-1.918-.647-3.813-2.493-4.391h0Z"/>
    <path class="cls-1" d="m118.922,72.928c2.616-.11,5.234-.119,7.85-.013,1.092.044,2.182.108,3.271.199.801.067-.847-.177-.057-.003.22.049.442.085.662.14.216.054.425.128.64.187.64.175-.651-.393-.058-.025.118.073.404.303.534.325l-.404-.302c.1.091.195.187.283.29l-.314-.397c.182.326.156.229-.077-.292.247.858.104-.73.065.161-.017.403.164.264.03-.099.053.145-.19.7-.256.834.38-.78-.089.075-.153.186-.192.332-.405.652-.616.972-.713,1.079-1.316,2.133-1.779,3.352-.412,1.086-.697,2.23-1.031,3.342-.257.856.378-.545-.095.215l-.116.21c-.212.319-.167.277.136-.125-.01.06-.458.538-.515.53-.02-.003.631-.367.136-.123-.734.363.778-.162-.002.027s.845.008.058-.02l.506.056c.492.243.557.265.194.064.374.304.421.32.139.048.28.384.307.414.082.09-1.23-2.137-2.473-4.267-3.676-6.42-.551-.986-1.08-1.977-1.567-2.995.357.746-.052-.141-.096-.262-.101-.28-.194-.564-.273-.851-.062-.225-.23-.631-.198-.865.051.463.057.487.018.071-.014-.197-.019-.395-.017-.592-.024-.272.156-.636-.055.155l-.596.96c-1.151.545-1.433.729-.844.551-.97.21-.383.061-.068.071.278.009.557.041.834.069.132.013,1.145.058.28.025.195.007.416.064.611.097.71.121,1.423.262,2.119.451.314.085.763.401.032-.042-.623-.43-.963-1.067-1.02-1.912.003.191-.007.382-.03.571-.046.593-.126,1.185-.19,1.776-.139,1.291-.273,2.584-.327,3.881-.13,3.129.338,6.099,1.577,8.977.551,1.281,2.311,1.871,3.556,1.704,1.428-.192,2.532-1.185,2.967-2.557.485-1.529.378-3.056.116-4.609-.087-.515-.201-1.024-.304-1.535-.021-.105-.2-1.039-.109-.508.089.521-.021-.39-.023-.508-.006-.429-.065-.497-.058-.03-.004-.271.133-.553.196-.815.197-.829-.331.575.058-.19.129-.255.259-.506.404-.752.291-.498.63-.958.949-1.437.372-.56-.267.219.021-.037.086-.101.178-.196.277-.284-.729.695-1.673.76-2.83.193l-1.28-1.28c.344.457.003-.257-.048-.483-.134-.589-.092.322.005-.237.102-.587-.072.142-.103.265-.139.55-.048-.111.07-.126-.117.015-.606,1.185-.67,1.308-.222.426-.445.851-.667,1.277-.19.364-.374.732-.581,1.086-.058.099-.405.737-.134.263.232-.406-.046.006-.121.106-.233.306.582-.375.01-.049.102-.058.689-.356.79-.219.019.026-.94-.029-.324.027.595.054-.318-.043-.312-.122.002-.027.629.366.103.015-.078-.052-.756-.483-.355-.203.354.246-.134-.122-.197-.179-.181-.161-.356-.328-.529-.498-.294-.289-.567-.602-.861-.891-.128-.146-.11-.122.051.071.159.161.258.357.296.588.109.521.029,1.164-.184,1.649.174-.252.172-.259-.006-.022-.227.293-.179.23.145-.189.184-.239.397-.485.56-.743.315-.498.567-1.102.713-1.668.308-1.201.312-2.606-.155-3.768l-.918,3.473.13-.141-1.575.918-3.28-1.75.065.248c.025.203.101.413.149.611.112.459.224.917.336,1.376.211.866.423,1.732.634,2.599.443,1.815,2.594,3.074,4.391,2.493,1.885-.61,2.967-2.446,2.493-4.391-.391-1.604-.705-3.254-1.183-4.834-.456-1.507-1.476-2.793-3.025-3.259-1.464-.44-3.134-.054-4.181,1.082-.796.864-1.392,2.294-.918,3.473-.012-.03.195.463.167.481-.078.051.044-.958-.048-.19.019-.157.229-.742.004-.195.083-.201.395-.536.039-.161-.075.079-.253.428-.003.02.374-.611-.295.361-.497.644-.333.468-.592,1-.745,1.556-.666,2.425.732,4.364,2.359,5.966,1.35,1.329,3.002,2.568,4.914,2.896,2.23.382,4.595-.099,6.166-1.844,1.165-1.294,1.874-2.897,2.672-4.425.953-1.823,1.725-3.722,1.273-5.815-.65-3.009-4.056-4.535-6.715-2.917-1.587.966-2.754,2.714-3.639,4.317-1.039,1.881-1.62,3.972-1.349,6.125.13,1.03.34,2.031.533,3.05.023.123.123.727.05.219-.078-.539.011.236.014.35,0,.027.036.485-.011.543l.054-.412c-.036.18-.086.357-.148.53l6.524-.853c.28.65-.029-.137-.105-.381-.102-.323-.19-.651-.265-.981-.043-.189-.077-.379-.116-.569-.015-.072-.111-.557-.027-.1.083.451-.003-.023-.01-.103-.023-.243-.045-.485-.061-.729-.092-1.434-.021-2.873.102-4.304.121-1.417.43-2.874.426-4.295-.007-2.551-1.691-4.298-4.024-5.011-1.597-.488-3.328-.696-4.98-.873-1.8-.192-3.791-.011-5.123,1.384-2.8,2.933-1.063,7.751.494,10.854,1.391,2.772,2.991,5.475,4.572,8.141.964,1.625,2.332,3.105,4.24,3.555,1.791.423,3.747.008,5.226-1.084,1.576-1.164,2.544-2.599,3.238-4.422.242-.636.419-1.293.602-1.948.092-.328.184-.656.288-.98.059-.185.132-.365.19-.55.146-.471-.382.681.049-.075.664-1.165,1.508-2.233,2.077-3.45.855-1.828,1.312-3.953.592-5.912-1.343-3.651-4.938-4.814-8.491-5.107s-7.129-.294-10.681-.145c-1.863.078-3.658,1.586-3.569,3.569.084,1.867,1.571,3.653,3.569,3.569h0Z"/>
    <path class="cls-1" d="m198.855,130.438c2.701-6.374,4.224-13.014,5.438-19.809,1.15-6.435,2.087-12.967,4.047-19.22.363-1.158.763-2.303,1.202-3.435.132-.341.268-.682.408-1.02-.249.599.223-.505.218-.495.299-.67.612-1.333.94-1.989.545-1.089,1.131-2.157,1.762-3.199.376-.62.767-1.231,1.175-1.831.135-.199.272-.397.411-.593.071-.1.842-1.146.513-.718.719-.938,1.506-1.83,2.328-2.679.488-.504.993-.992,1.515-1.46.173-.155.348-.309.525-.459.092-.079,1.119-.893.633-.527.966-.726,1.986-1.382,3.049-1.958.557-.302,1.125-.585,1.706-.836-.556.241.135-.046.273-.098.382-.143.767-.277,1.156-.399,2.927-.919,5.839-1.072,8.924-.757,1.367.14,2.907.447,4.324.813.59.152,1.175.323,1.754.515.349.116.693.245,1.039.371.655.238-.18-.122.499.212.599.295,1.19.593,1.759.942.255.157.501.324.75.49.882.59-.374-.406.393.315,1.06.996,1.398,1.24,1.982,2.594-.224-.518.221.768.2.689-.042-.155.225,1.139.174.77.062.454.047,1.422-.004,2.065-.087,1.101-.604,2.824-1.092,4.14-1.825,4.926-5.267,10.203-8.416,14.256-3.273,4.213-7.433,8.521-11.52,12.314-9.503,8.821-20.037,16.433-29.777,24.979-1.45,1.272-1.301,3.747,0,5.048,1.439,1.439,3.594,1.275,5.048,0,18.011-15.805,40.506-29.428,50.528-52.215,1.491-3.391,2.724-7.096,2.341-10.854-.361-3.541-1.941-6.759-4.684-9.063-5.16-4.334-12.857-5.96-19.455-5.637-12.674.62-21.987,10.105-26.916,21.156-3.016,6.761-4.493,13.91-5.769,21.169-1.346,7.655-2.516,15.663-5.544,22.809-.751,1.773-.532,3.823,1.28,4.883,1.497.876,4.127.504,4.883-1.28h0Z"/>
    <path class="cls-1" d="m93.193,142.338c-.72-3.688-3.499-6.391-6.279-8.688-2.932-2.422-5.962-4.733-9.081-6.91-5.976-4.17-12.301-7.838-18.885-10.959-6.731-3.191-13.717-5.87-20.88-7.92-6.597-1.889-13.748-3.77-20.658-2.907s-12.949,4.506-15.719,11.059c-2.332,5.516-2.164,12.033-.033,17.594,5.146,13.426,19.379,19.112,32.052,23.227,15.788,5.126,31.925,9.073,48.072,12.884,1.98.467,3.96.932,5.94,1.398,1.875.441,3.866-.585,4.391-2.493.497-1.808-.608-3.948-2.493-4.391-15.203-3.572-30.418-7.147-45.391-11.604-3.65-1.086-7.287-2.218-10.897-3.428-1.374-.46-2.743-.937-4.102-1.441-1.614-.599-2.987-1.145-4.287-1.729-2.854-1.282-5.63-2.764-8.19-4.57-1.029-.726-1.776-1.324-2.88-2.351-.566-.527-1.112-1.075-1.636-1.644-.263-.286-.52-.577-.771-.873-.168-.198-.334-.399-.496-.602.151.202.159.211.023.028-.747-1.004-1.396-2.082-1.951-3.203-.146-.295-.285-.593-.419-.894.309.693-.114-.303-.138-.368-.232-.618-.437-1.246-.616-1.881s-.329-1.277-.453-1.924c-.062-.323-.117-.647-.164-.972.118.815-.017-.257-.025-.351-.114-1.301-.071-2.574.012-3.873.066-1.034-.155.7.038-.313.059-.311.111-.622.178-.931.134-.612.3-1.217.5-1.811.099-.295.207-.586.323-.875-.253.629-.052.124.012.002.335-.641.66-1.276,1.063-1.879.055-.082.67-.889.174-.275.196-.242.399-.478.61-.707.429-.464.891-.896,1.38-1.297-.5.41.002,0,.1-.064.322-.211.637-.428.969-.624.893-.526,1.162-.654,1.892-.912,2.888-1.018,5.315-1.128,8.594-.885,2.783.206,5.86.873,8.959,1.65,6.377,1.598,12.984,3.786,18.821,6.285,7.026,3.007,13.789,6.64,20.182,10.826,3.09,2.023,6.244,4.275,9.001,6.469,1.389,1.105,2.802,2.213,4.078,3.45.281.272.556.551.818.842.174.191.342.388.504.589-.175-.208-.136-.14.116.207.188.326.407.639.551.989-.167-.406.178.796.207.946.369,1.893,2.633,2.976,4.391,2.493,1.977-.543,2.863-2.492,2.493-4.391h0Z"/>
    <path class="cls-1" d="m122.064,239.728c-14.843,5.894-29.159,14.468-40.467,25.849-5.662,5.699-10.168,12.351-12.583,20.058-1.282,4.092-1.981,8.325-2.548,12.566-.501,3.745-1.237,7.68-1.015,11.469.261,4.443,2.138,8.261,5.966,10.672,1.741,1.096,3.779,1.878,5.801,2.305,5.092,1.074,10.429.443,15.4-.931,12.755-3.524,24.637-11.587,32.798-21.999,4.691-5.984,8.132-12.604,11.162-19.55,3.121-7.154,5.888-14.402,7.853-21.965.37-1.426.714-2.858,1.036-4.295.421-1.879-.571-3.863-2.493-4.391-1.793-.493-3.967.604-4.391,2.493-1.468,6.549-3.439,12.98-5.916,19.219-2.504,6.308-5.289,12.635-8.859,18.419-3.031,4.91-6.702,9.275-11.075,13.108-.847.742-1.717,1.456-2.599,2.154.485-.384-.077.059-.261.197-.305.229-.611.456-.92.68-.61.442-1.227.874-1.852,1.295-2.87,1.933-5.895,3.636-9.04,5.078-3.218,1.475-6.618,2.625-10.088,3.336-.665.136-1.332.249-2.002.354-.427.067.112-.014.165-.021-.152.018-.303.037-.455.053-.34.035-.68.069-1.021.095-1.09.083-2.186.107-3.278.056-.447-.021-.891-.067-1.337-.102-.699-.056.42.077.225.037-.188-.039-.382-.058-.572-.091-.545-.096-1.086-.216-1.618-.367-.161-.046-.321-.094-.48-.145-.162-.051-.324-.105-.485-.161-.181-.063-.362-.129-.54-.199-.583-.228.357.178-.209-.093-.347-.166-.687-.341-1.019-.535-.132-.077-.961-.633-.684-.415-.708-.557-.993-.919-1.295-1.436-.098-.168-.194-.338-.278-.513.035.073.134.353-.013-.038-.136-.362-.237-.738-.323-1.114-.043-.19-.084-.381-.116-.572.028.164.034.548-.021-.222-.033-.465-.054-.93-.056-1.396-.005-1.71.2-3.412.391-5.108.428-3.796.847-7.284,1.652-11.057.754-3.534,1.791-7.063,3.383-10.223,1.575-3.127,3.549-5.981,5.692-8.464,4.68-5.422,10.275-10.004,16.06-14.061,6.112-4.287,12.621-8.009,19.415-11.102,1.683-.766,3.126-1.377,4.806-2.044,1.79-.711,3.044-2.387,2.493-4.391-.468-1.703-2.589-3.208-4.391-2.493h0Z"/>
    <path class="cls-1" d="m197.301,242.019c5.898,9.5,13.7,17.674,22.887,24.042,4.713,3.267,9.924,6.341,15.547,7.696,6.11,1.472,12.126.493,17.082-3.456,8.712-6.943,11.592-19.166,10.128-29.775-1.481-10.729-7.695-20.302-15.593-27.498-9.942-9.059-22.367-14.492-34.777-19.267-1.8-.692-3.916.765-4.391,2.493-.553,2.014.687,3.696,2.493,4.391,9.877,3.8,19.918,8.065,28.37,14.665,7.083,5.53,13.434,13.208,15.951,21.975.304,1.059.558,2.132.76,3.216.258,1.383.307,1.813.398,3.303.068,1.101.083,2.205.044,3.307-.02.582-.055,1.164-.106,1.744-.061.706-.098,1.016-.157,1.358-.39,2.272-.949,4.533-1.852,6.661.193-.454-.133.277-.179.376-.135.289-.275.577-.42.861-.232.455-.478.904-.736,1.346-.291.498-.599.985-.922,1.462-.144.213-.291.423-.442.631-.112.157-.227.312-.344.466.123-.165.108-.151-.044.04-1.626,1.979-3.009,3.185-5.163,4.327-.377.2-.445.216-1.025.402-.594.19-1.205.344-1.821.447-.721.12.782-.017-.488.054-.276.015-.55.034-.827.041-.694.016-1.388-.015-2.078-.08-.785-.073-2.129-.388-3.208-.706-1.096-.323-2.313-.767-3.206-1.166-2.375-1.062-4.636-2.381-6.83-3.774-9.209-5.846-17.135-13.912-22.891-23.183-1.016-1.636-3.188-2.272-4.883-1.28-1.634.955-2.301,3.239-1.28,4.883h0Z"/>
  </g>
</svg>