<?xml version="1.0" encoding="utf-8"?>
<!-- Generator: Adobe Illustrator 27.7.0, SVG Export Plug-In . SVG Version: 6.00 Build 0)  -->
<svg version="1.1" id="Layer_1" xmlns="http://www.w3.org/2000/svg" xmlns:xlink="http://www.w3.org/1999/xlink" x="0px" y="0px"
	 viewBox="0 0 1280 1024" style="enable-background:new 0 0 1280 1024;" xml:space="preserve">
<style type="text/css">
	.st0{fill:#184753;}
	.st1{enable-background:new    ;}
	.st2{fill:#E8E6D2;}
</style>
<path id="A" class="st0" d="M843.11,525.41H479.69c-29.61,0-53.62-24.01-53.62-53.62v-42.21h417.04V525.41z"/>
<g class="st1">
	<path class="st2" d="M509.89,489.74c-1.13,0-2.51-0.2-3.69-0.34c-0.25-0.88-1.18-4.13-1.57-5.71c-0.49-1.87-1.13-3.34-1.52-4.43
		c-1.67,0.1-5.31,0.15-7.92,0.15c-0.49,2.95-1.48,6.98-1.87,9.88c-3.29,0.15-5.61-0.2-7.82-1.18c0.34-2.61,1.43-6.98,1.72-9.05
		c-0.2,0-0.25-0.15-3.84-0.05c0-0.79-0.15-2.31,0.05-3.64c0.2-1.08,0.79-2.51,1.18-3.29c3.98,0.05,3.05,0,4.33,0
		c1.87-5.71,3.59-13.18,5.95-19.82l7.72-0.54c1.08,3.74,8.75,27.39,11.61,36.79C513.33,489.06,511.21,489.84,509.89,489.74z
		 M501.13,471.89c-0.49-1.52-1.82-5.41-2.21-6.88c-0.49,2.31-1.67,4.48-2.16,7.03C497.74,472.04,500.15,471.99,501.13,471.89z"/>
	<path class="st2" d="M517.06,490.88c0,0,0.15-5.07,0.2-7.62c0.34-5.21,0.15-9.64,0.15-15.54c0-6.49,0.1-13.23-0.2-19.57
		c0.1-1.23-0.44-2.8-0.79-3.74c2.21-0.84,3.79-1.13,5.36-1.03c0.49,0,3.69,0.29,4.33,0.39c-0.74,9.1-0.44,12.88-0.64,19.72
		c-0.05,2.8-0.05,12.39-0.15,18.29c-0.05,3.44,0.25,6.93,0.34,8.66C524.73,490.92,519.13,491.56,517.06,490.88z"/>
	<path class="st2" d="M530.39,490.88c0,0,0.15-5.07,0.2-7.62c0.34-5.21,0.15-9.64,0.15-15.54c0-6.49,0.1-13.23-0.2-19.57
		c0.1-1.23-0.44-2.8-0.79-3.74c2.21-0.84,3.79-1.13,5.36-1.03c0.49,0,3.69,0.29,4.33,0.39c-0.74,9.1-0.44,12.88-0.64,19.72
		c-0.05,2.8-0.05,12.39-0.15,18.29c-0.05,3.44,0.25,6.93,0.34,8.66C538.06,490.92,532.45,491.56,530.39,490.88z"/>
	<path class="st2" d="M585.76,463.83l-4.67-0.54l-6.54-0.1c-0.25,2.26-0.1,6.69-0.15,10.13c-0.05,2.36,0.2,4.77,0.54,12l0.2,2.56
		c-1.57,1.03-4.57,1.23-9.2,0.98l-0.2-3.39l0.54-12.69l0.39-9.69c-2.02-0.15-4.03-0.15-6.44,0.05l-3.84,0.69
		c-0.29-1.48-0.29-3.79-0.29-4.52c0-0.29,0.39-2.75,0.74-3.88l3.1,0.39c3.1,0.05,5.56-0.05,11.06,0c3.93,0.05,10.43-0.39,10.43-0.39
		l4.33-0.25C586.1,456.45,586.06,461.81,585.76,463.83z"/>
	<path class="st2" d="M607.2,491.66c-0.93,0.1-2.9-0.1-3.98-0.44l0.1-3.64c0.05-2.41,0.54-5.12,0.2-8.46
		c-0.05-3.93-0.64-5.75-1.23-7.67c-0.3-0.93-0.59-1.72-1.33-1.72c-1.77,0-3.15,3.34-3.64,4.72l0.54,5.36l0.89,8.16l0.29,3
		c-2.66,0.84-5.16,1.18-8.02,0.93l-0.34-3.2l-0.64-5.95c-0.39-3.39-0.79-7.38-1.23-11.75c-0.2-2.41-1.28-15.1-3.44-27.15
		c2.26-0.64,4.08-0.98,5.11-0.98c0.69,0,1.43,0,3.93,0.59l0.29,2.75c0.34,3,0.29,7.28,0.84,11.75c0.34,2.66,0.34,6.15,0.59,8.51
		c0.93-2.36,4.48-4.28,6.1-4.43c2.36-0.1,5.51,1.82,7.08,5.56c1.03,2.46,2.26,8.02,2.26,16.77c0,1.03,0,2.21-0.05,3.34
		c-0.05,0.39-0.15,3.05-0.05,3.49C611.48,491.22,608.18,491.76,607.2,491.66z"/>
	<path class="st2" d="M619.59,461.32c-2.31,0-4.92-1.87-4.92-4.33s2.51-4.28,4.92-4.28c2.61,0,4.72,1.82,4.92,4.28
		C624.36,459.55,622.15,461.32,619.59,461.32z M621.8,490.33c-0.59,0-1.28,0-4.08-0.49c-0.25-5.07-0.98-14.85-1.97-23.9
		c2.66-0.84,5.46-1.18,8.31-0.79l0.34,3.1l-0.05-0.1c0.15,0.88,0.39,4.52,0.79,8.95c0.2,2.16,0.64,6.84,0.89,12.54
		C626.03,489.65,623.23,490.24,621.8,490.33z"/>
	<path class="st2" d="M651.8,486.01c0,0.49,0,0.93,0.34,4.23l-9.64-1.77c0.29-1.87,0.29-2.85,0.44-3.88
		c0.2-1.33,0.44-4.43,0.93-6.98c0.34-1.97,0.64-3.79,0.64-5.95c0-1.28-0.25-2.36-0.74-2.7c-0.88,0.05-4.23,3.05-5.65,4.87
		c0.1,3.1,0.05,4.43,0,5.85c-0.05,1.18-0.25,8.41-0.05,9.2l-8.56,0.74c0,0,0.54-10.82,0.59-14.02c0.05-2.9-0.79-13.03-0.79-13.03
		c1.62-0.39,4.82-1.03,8.07-0.69c0,0,0.2,3.93,0.2,4.52c1.18-1.82,3.93-4.33,6.39-4.87c1.03-0.25,2.95,0,3.84,0.34
		c4.23,1.82,5.11,5.56,5.11,9.25c0,1.67-0.39,3.84-0.59,5.71C652.05,478.58,651.8,482.91,651.8,486.01z"/>
	<path class="st2" d="M675.65,460.78c2.41,2.11,5.51,5.85,5.51,8.61c0,6.93-4.82,11.41-12.25,11.41c-0.49,0-3.05-0.1-4.08-0.49
		c-0.69,0.69-0.29,2.21-0.29,2.21c0,0.2,0.44,0.88,1.23,1.43c0.69-0.34,2.85-0.54,3.69-0.54c5.75,0,10.62,3.98,10.62,10.92
		c0,3.54-0.54,6.2-3.44,8.71c-1.67,1.43-5.16,2.61-8.16,2.61c-4.43,0-12.29-3.89-12.29-12.2c0-2.85,0.89-5.12,2.75-6.89
		c-1.53-1.72-2.41-3.34-2.41-4.82c0-1.87,0.69-3.05,2.61-4.13c-2.31-2.02-3.98-4.57-3.98-6.49c0-1.97,0.25-3.84,1.67-6
		c2.95-4.43,7.18-5.95,11.9-5.95h1.38c1.43-3.69,4.52-5.75,9-5.75c1.28,0,2.61,0.05,2.61,0.05c0.74,2.16,0.74,3,0.74,3.89
		c0,0.64-0.29,1.97-0.54,2.9l-1.28-0.54C679.93,459.79,677.17,459.06,675.65,460.78z M672.8,469.09c0-1.48-1.13-3.34-3.2-3.34
		c-0.89,0-2.16,0.25-2.95,0.59c-0.84,0.39-2.66,2.85-2.66,4.67c0,0.34,0.34,0.98,0.79,1.47c0.98,1.23,1.38,1.67,4.08,1.67
		c2.51,0,3.64-1.67,3.89-4.52v-0.1C672.8,469.38,672.8,469.29,672.8,469.09z M667.29,489.99c-1.52,0-2.75,0.93-2.75,3.39
		c0,1.77,0.1,3.49,0.74,4.28c0.84,0.98,2.31,1.43,2.95,1.38c1.13-0.05,3.05-0.84,3.05-2.9
		C671.27,494.66,671.47,489.99,667.29,489.99z"/>
	<path class="st2" d="M695.76,470.86c4.33,1.47,9.84,3.39,9.84,10.33c0,5.66-4.67,9.59-11.11,9.59c-9.2,0-10.67-5.07-10.48-12.29
		l8.31,0.59c-0.64,2.07-0.2,3.39-0.1,3.93c0.1,0.64,0.79,1.43,2.02,1.43c1.72,0,3.05-1.62,3.05-3.54c0-2.41-2.36-3.2-4.67-4.03
		c-4.23-1.47-8.51-3.05-8.56-7.97c-0.1-6.54,6.2-8.7,11.31-8.7c4.72,0,8.85,0.44,9.15,9.44l-6,0.44c-0.15-2.61-1.62-3.84-2.71-3.89
		c-1.82-0.05-3.34,1.28-3.25,2.71C692.71,469.88,693.84,470.22,695.76,470.86z"/>
	<path class="st2" d="M745.82,489.74c-1.13,0-2.51-0.2-3.69-0.34c-0.25-0.88-1.18-4.13-1.57-5.71c-0.49-1.87-1.13-3.34-1.53-4.43
		c-1.67,0.1-5.31,0.15-7.92,0.15c-0.49,2.95-1.48,6.98-1.87,9.88c-3.29,0.15-5.61-0.2-7.82-1.18c0.34-2.61,1.43-6.98,1.72-9.05
		c-0.2,0-0.25-0.15-3.84-0.05c0-0.79-0.15-2.31,0.05-3.64c0.2-1.08,0.79-2.51,1.18-3.29c3.98,0.05,3.05,0,4.33,0
		c1.87-5.71,3.59-13.18,5.95-19.82l7.72-0.54c1.08,3.74,8.75,27.39,11.61,36.79C749.26,489.06,747.15,489.84,745.82,489.74z
		 M737.06,471.89c-0.49-1.52-1.82-5.41-2.21-6.88c-0.49,2.31-1.67,4.48-2.16,7.03C733.67,472.04,736.08,471.99,737.06,471.89z"/>
	<path class="st2" d="M773.85,474.06c0,0-5.11,0.93-7.52,0.93l0.15-3.64c0-0.84-0.25-1.82-0.89-1.67c-1.23,0.29-1.82,0.64-3.79,2.85
		l-1.18,1.77c-0.05,1.92-0.2,4.08-0.1,6.29c0.05,2.31,0,2.66,0.39,8.41l-9.05-0.15l0.05-3.93c0.29-5.7,0.49-8.66,0.34-15.39
		c-0.05-2.66-0.15-3.93-0.39-6.74c1.92-0.84,8.21-1.57,8.21-1.57c0.1,2.12,0.29,4.62,0.29,4.62c1.08-0.98,3.69-3.84,5.21-4.03
		c2.56-0.34,4.23,0.34,5.75,2.02c1.43,1.43,2.46,4.92,2.41,7.03L773.85,474.06z"/>
	<path class="st2" d="M789.43,472.19c0,1.77-0.1,4.97-0.1,9.2c0,1.62,0.34,3.3,1.48,3.3c0.84-0.1,3.34-3.79,3.54-4.28
		c2.71,0.39,4.77,1.28,6.39,3.29c-2.16,6.39-8.31,9.39-12.74,9.39c-0.54,0-1.23-0.05-1.82-0.2h0.05c-3.74-0.79-5.66-3.84-5.61-9.2
		c0-0.93,0-3.1,0.05-6.44v-4.28c-1.57,0.15-3.2,0.25-3.88,0.29v-7.52c1.28,0,3.2,0.15,3.74,0.1c0-1.57,0-3,0.1-3.93
		c0.1-3.05,0.49-7.47,0.79-11.95c3.29-0.34,6.15-0.05,8.51,0.88l-0.1,3l-0.15,1.97c-0.05,1.82-0.25,3.29-0.39,6.49
		c-0.1,1.13-0.1,0.59-0.1,2.71c1.52-0.15,3.44-0.25,4.97-0.34l3.98-0.25c0.74,1.52,0.69,3.05,0.69,4.13c0,0.64-0.15,2.8-0.3,3.54
		l-4.87,0.05C792.68,472.14,790.61,472.14,789.43,472.19z"/>
</g>
</svg>
