<?xml version="1.0" encoding="utf-8"?>
<!-- Generator: Adobe Illustrator 27.7.0, SVG Export Plug-In . SVG Version: 6.00 Build 0)  -->
<svg version="1.1" id="Layer_1" xmlns="http://www.w3.org/2000/svg" xmlns:xlink="http://www.w3.org/1999/xlink" x="0px" y="0px"
	 viewBox="0 0 1280 1024" style="enable-background:new 0 0 1280 1024;" xml:space="preserve">
<style type="text/css">
	.st0{fill:#184753;}
	.st1{enable-background:new    ;}
	.st2{fill:#E8E6D2;}
</style>
<polygon class="st0" points="792.72,453.46 487.73,453.46 487.73,534.67 792.72,534.67 752.11,494.06 "/>
<g class="st1">
	<path class="st2" d="M590.81,508.83l-8.56,0.74c-0.29-2.07-0.44-5.8-0.44-8.21c0-3.54-0.25-9.49-0.39-10.97
		c-0.2-1.38-0.79-1.92-0.74-2.02c-2.26-0.44-3.79,4.87-3.89,7.67c-0.2,3.93-0.29,7.57-0.2,11.11l-8.85-0.34l0.44-3.2
		c0.49-3.29,0.74-7.23,0.74-10.57c0-1.57-0.44-4.08-1.18-4.38s-3.84,0.59-5.07,3.44c-0.2,6.74,0.1,4.28,0.1,9.15
		c0,1.38,0.15,4.28,0.15,4.28l-9.1-0.44c0.1-0.15,0.59-5.75,0.89-8.31c0.39-3.29,0-10.13-1.87-13.03c0,0,5.9-2.95,7.82-3.49
		c0,0,1.18,1.97,1.52,3.98c1.18-1.43,3.25-3.25,5.46-3.64c1.18-0.2,2.8-0.1,4.28,0.79c1.82,1.13,2.75,2.11,3.44,3.44
		c0.84-1.92,3.74-3.84,5.66-3.93c3.1-0.15,5.16,0.59,6.98,2.9c1.92,2.61,1.77,6.54,1.87,10.23c0,3.29,0.15,7.82,0.3,10.18
		C590.22,505.34,590.56,507.11,590.81,508.83z"/>
	<path class="st2" d="M610.23,501.11c0.54,0,2.66-0.29,5.56-0.69c-0.39,3.39-1.48,6.49-3.25,9.39l-3.49-0.64
		c-2.36-0.39-4.77-1.03-6.64-2.02h0.05c-3.25-1.57-5.41-3.44-6.64-5.7c-1.67-3.05-2.36-6.25-2.36-9.49c0-1.92,0.39-4.13,1.08-5.9
		c2.26-5.46,6.05-8.41,10.97-8.07h-0.05c7.52,0.44,11.21,5.85,11.02,16.18l-13.92,2.51C603.79,499.78,606.29,501.11,610.23,501.11z
		 M607.28,489.55c-0.1-1.43-0.05-2.31-0.44-3.39c-0.44-1.08-1.03-1.43-1.87-1.43c-0.69-0.05-1.97,0.89-2.56,2.51
		c-0.39,1.18-0.59,2.31-0.59,3.25C603.59,490.14,605.41,489.9,607.28,489.55z"/>
	<path class="st2" d="M641.8,504.55c0,0.49,0,0.93,0.34,4.23l-9.64-1.77c0.29-1.87,0.29-2.85,0.44-3.88
		c0.2-1.33,0.44-4.43,0.93-6.98c0.34-1.97,0.64-3.79,0.64-5.95c0-1.28-0.25-2.36-0.74-2.7c-0.89,0.05-4.23,3.05-5.66,4.87
		c0.1,3.1,0.05,4.43,0,5.85c-0.05,1.18-0.25,8.41-0.05,9.2l-8.56,0.74c0,0,0.54-10.82,0.59-14.02c0.05-2.9-0.79-13.03-0.79-13.03
		c1.62-0.39,4.82-1.03,8.07-0.69c0,0,0.2,3.93,0.2,4.52c1.18-1.82,3.93-4.33,6.39-4.87c1.03-0.25,2.95,0,3.84,0.34
		c4.23,1.82,5.11,5.56,5.11,9.25c0,1.67-0.39,3.84-0.59,5.71C642.05,497.13,641.8,501.46,641.8,504.55z"/>
	<path class="st2" d="M660.63,507.75c-0.15-1.48-0.79-4.52-0.84-4.82c-1.67,1.82-4.77,2.85-6.93,2.85c-5.36,0-8.02-3.25-8.02-9.79
		c0-1.82,0.15-4.03,0.39-6.74c0.2-1.87,0.49-5.41,0.64-7.23c3.39,0,6.1,0.34,8.21,0.88c-0.34,5.16-0.64,9.84-0.64,11.46
		c0,2.21,0.49,3.49,1.28,3.84c0.64,0,2.36-1.18,2.75-1.97c0.44-0.98,0.79-1.72,1.18-3.74c0.34-1.82,0-4.72,0.05-6.29
		c1.72-0.29,3.39-0.59,4.03-0.59c0.98,0,2.36,0.34,4.28,1.03c-0.05,0.64-0.15,2.46-0.15,3.1c0,1.87,0.1,4.57,0.29,6.39
		c0.29,2.61,0.74,6.79,1.33,10.03l-1.38,0.64C666.14,507.31,663.93,507.6,660.63,507.75z"/>
</g>
</svg>
